<?xml version="1.0" standalone="no"?>
<!DOCTYPE svg PUBLIC "-//W3C//DTD SVG 20010904//EN"
 "http://www.w3.org/TR/2001/REC-SVG-20010904/DTD/svg10.dtd">
<svg version="1.0" xmlns="http://www.w3.org/2000/svg"
 width="960.000000pt" height="960.000000pt" viewBox="0 0 960.000000 960.000000"
 preserveAspectRatio="xMidYMid meet">
<metadata>
Created by potrace 1.11, written by Peter Selinger 2001-2013
</metadata>
<g transform="translate(0.000000,960.000000) scale(0.100000,-0.100000)"
fill="#000000" stroke="none">
<path d="M0 4800 l0 -4800 1595 0 1595 0 -1 58 c0 31 9 108 20 171 12 63 21
133 21 156 0 23 6 48 12 57 20 26 100 64 138 66 19 2 49 6 65 11 17 5 57 12
89 15 67 7 235 85 293 137 19 16 37 29 42 29 5 0 24 14 42 30 61 55 81 61 217
65 70 1 132 4 137 6 6 2 44 -30 85 -72 41 -41 129 -111 195 -156 66 -45 143
-101 172 -125 28 -24 73 -59 100 -77 26 -19 103 -91 169 -160 82 -84 126 -122
136 -118 9 3 30 31 48 62 30 52 34 56 61 50 28 -6 31 -4 58 57 32 72 46 130
95 418 35 203 36 205 19 269 -9 35 -38 105 -64 155 -27 50 -81 156 -120 236
-40 80 -79 153 -87 163 -22 26 -75 23 -267 -15 -33 -6 -105 -29 -160 -51 -107
-42 -159 -53 -297 -63 -49 -4 -88 -10 -88 -13 0 -10 -69 -33 -79 -26 -5 3 -30
0 -55 -7 -38 -10 -53 -9 -106 8 -34 10 -65 25 -67 32 -6 14 -116 92 -131 92
-15 0 -146 82 -177 111 -36 34 -53 36 -63 9 -8 -23 -29 -14 -36 15 -13 62 -18
67 -50 61 -17 -4 -59 -20 -93 -36 -34 -17 -72 -30 -85 -30 -32 0 -94 65 -125
131 -24 54 -24 55 -18 245 5 133 4 193 -3 198 -6 4 -16 -2 -21 -13 -10 -17
-56 -35 -249 -93 -19 -6 -46 -16 -60 -24 -15 -8 -33 -14 -39 -14 -7 0 -13 -4
-13 -8 0 -4 -12 -13 -27 -19 -57 -24 -314 -188 -368 -235 -24 -20 -75 -57
-130 -94 -22 -15 -41 -31 -43 -35 -2 -5 -10 -9 -17 -9 -7 0 -15 -4 -17 -8 -3
-7 -142 -52 -161 -52 -5 0 -5 6 -1 13 4 6 -3 1 -16 -11 -21 -23 -32 -24 -73
-7 -13 5 -16 3 -11 -8 3 -8 1 -18 -5 -22 -6 -3 -11 1 -11 11 0 10 -3 14 -7 10
-5 -4 -8 -13 -8 -19 0 -7 -11 -13 -25 -15 -21 -2 -22 -1 -10 9 12 9 11 10 -5
3 -11 -4 -30 -7 -43 -7 -13 1 -21 -1 -18 -5 5 -5 -32 -42 -42 -42 -2 0 -2 13
1 28 8 40 -4 55 -39 46 -26 -7 -28 -6 -15 10 22 26 3 32 -24 6 -27 -25 -55
-21 -55 8 0 28 20 43 42 31 23 -12 23 -1 -1 30 -21 27 -18 51 6 51 13 0 13 -2
2 -17 -12 -14 -12 -16 1 -11 8 3 14 13 14 22 -1 9 3 16 8 16 7 0 8 -16 5 -41
-6 -48 1 -45 13 5 5 23 4 36 -2 36 -6 0 -8 7 -5 14 4 10 1 13 -9 9 -7 -3 -14
-9 -14 -14 0 -16 -25 -10 -43 11 -11 13 -13 20 -4 20 7 1 5 6 -6 14 -23 18
-22 26 6 27 21 0 21 1 2 8 -11 5 -26 6 -32 4 -7 -3 -13 2 -13 11 0 9 5 16 11
16 18 0 41 28 27 32 -9 3 -9 6 0 12 7 4 14 -2 18 -18 4 -17 14 -25 35 -28 20
-3 29 0 29 9 0 7 -9 13 -19 13 -26 0 -31 19 -15 52 8 15 13 33 12 40 -2 8 5
12 15 10 18 -3 20 20 4 46 -14 21 2 32 36 25 28 -6 30 -5 19 9 -7 9 -12 20
-11 24 1 5 0 11 -1 14 -2 3 -4 24 -4 48 -2 27 2 42 10 42 7 0 15 -6 17 -12 3
-8 6 -7 6 4 1 9 -4 20 -10 24 -6 3 -8 15 -5 26 2 11 -3 32 -12 46 -16 25 -16
26 2 19 15 -6 17 -4 11 10 -4 10 -10 29 -12 43 -4 22 -3 23 9 9 12 -15 15 -15
28 -1 13 14 12 15 -2 10 -15 -6 -38 8 -38 24 0 4 7 8 15 8 8 0 22 11 31 24 8
14 23 27 32 29 9 3 2 3 -15 1 -29 -2 -33 0 -33 21 0 13 5 27 11 31 8 4 7 9 -2
15 -24 15 13 11 44 -5 15 -8 27 -11 27 -6 0 4 -7 10 -15 14 -20 7 -20 56 0 56
19 0 19 16 0 24 -17 6 -21 36 -5 36 6 0 10 -7 10 -15 0 -8 5 -15 10 -15 22 0
8 29 -20 42 -21 9 -30 20 -30 36 0 14 -9 27 -25 34 -31 14 -24 25 15 23 29 -2
29 -1 14 17 -16 17 -16 18 -1 18 22 0 22 24 1 45 -9 8 -17 27 -18 40 -1 17 -7
25 -18 25 -10 0 -18 7 -18 15 0 8 -7 15 -15 15 -13 0 -14 4 -5 21 12 22 4 42
-9 21 -5 -9 -15 -5 -36 14 -23 21 -29 34 -26 59 2 31 -9 48 -34 51 -5 0 -15 2
-20 2 -6 1 -11 11 -12 23 -1 15 2 19 13 15 9 -3 25 1 37 9 21 15 21 15 -6 15
-16 0 -35 7 -43 15 -14 13 -13 15 3 15 11 0 14 3 7 8 -16 11 -24 52 -11 52 32
1 39 17 22 50 -10 19 -14 42 -10 57 4 18 2 23 -6 17 -9 -5 -10 0 -6 18 8 29
-5 38 -51 38 -25 1 -25 2 -9 14 16 12 16 16 2 42 -10 19 -15 23 -15 12 0 -10
-4 -18 -9 -18 -12 0 -22 27 -15 43 3 8 0 26 -5 40 -9 24 -8 27 11 27 12 0 19
-3 15 -6 -7 -8 17 -34 32 -34 6 0 11 5 11 10 0 6 -7 10 -16 10 -12 0 -15 6
-11 22 3 11 0 33 -8 49 -13 24 -13 28 1 33 22 9 23 8 16 -16 -5 -21 -4 -22 11
-9 14 11 15 17 5 30 -7 9 -17 19 -23 24 -6 4 -1 10 12 13 24 7 37 30 26 47 -4
6 -10 0 -16 -14 -9 -22 -11 -20 -18 24 -4 27 -13 55 -20 63 -11 13 -9 14 13 9
15 -4 29 -2 32 4 6 10 -6 15 -26 12 -5 0 -8 4 -8 9 0 6 5 10 11 10 6 0 9 5 7
11 -2 6 -7 10 -12 9 -5 -1 -17 11 -27 26 -16 25 -19 26 -25 10 -5 -12 -1 -23
9 -31 21 -15 22 -25 2 -25 -8 0 -15 5 -15 10 0 6 -8 10 -17 11 -10 0 -13 3 -7
5 18 7 4 46 -13 40 -11 -4 -13 -1 -8 14 4 13 2 20 -6 20 -7 0 -10 3 -6 6 3 3
12 2 19 -2 15 -10 19 -11 53 -13 16 -1 25 -7 26 -18 0 -10 5 -2 11 17 8 28 7
36 -8 47 -27 20 -54 16 -63 -9 -7 -21 -9 -19 -12 12 -4 31 -2 35 19 37 26 1
39 10 29 19 -4 4 -13 1 -21 -5 -12 -10 -15 -7 -21 18 -3 17 -3 36 1 42 4 7 1
10 -7 7 -12 -4 -23 -42 -31 -105 -1 -7 -9 -13 -19 -13 -16 0 -17 4 -9 25 11
29 -3 35 -19 8 -6 -10 -11 -12 -11 -5 0 6 -7 12 -16 12 -8 0 -12 5 -9 10 5 8
11 7 21 -1 11 -9 14 -8 14 5 0 9 6 16 14 16 7 0 18 6 24 13 9 10 4 19 -18 39
-16 14 -31 23 -34 21 -3 -3 -4 9 -4 26 1 17 4 28 9 26 4 -3 5 5 1 17 -4 16 -2
19 8 13 10 -6 12 -4 7 8 -5 12 -1 17 13 17 11 0 20 5 20 10 0 6 -6 10 -13 10
-9 0 -12 10 -10 33 7 60 14 78 26 74 7 -2 20 9 30 25 21 34 21 33 2 51 -13 13
-13 16 0 21 10 4 15 -1 15 -15 0 -12 5 -19 13 -16 6 2 11 12 11 21 -1 9 4 16
12 16 17 0 18 17 2 23 -10 4 -10 6 0 6 6 1 12 10 12 21 0 12 7 32 16 45 10 15
12 25 5 25 -6 0 -11 5 -11 11 0 5 5 7 10 4 15 -10 12 11 -4 24 -11 10 -17 8
-25 -6 -9 -15 -12 -15 -20 -4 -5 7 -6 22 -4 32 4 14 0 19 -14 19 -16 0 -19 5
-15 31 3 20 9 29 18 25 17 -6 19 10 3 20 -7 4 -16 -1 -21 -10 -13 -23 -27 -20
-21 4 3 11 9 17 14 14 5 -3 12 2 15 11 5 11 14 15 28 11 15 -4 28 2 40 15 20
24 14 38 -9 19 -9 -7 -19 -9 -23 -5 -4 4 -2 10 5 12 7 2 9 11 6 19 -3 9 2 14
16 14 12 0 21 5 21 11 0 6 6 9 14 6 10 -4 12 0 9 14 -6 21 -18 25 -26 9 -3 -6
-4 -5 -3 2 1 7 16 15 33 19 37 7 53 17 53 32 0 7 -4 6 -10 -3 -7 -10 -10 -11
-10 -2 0 22 30 26 45 6 7 -11 9 -20 4 -22 -12 -5 -12 -32 0 -32 5 0 16 17 24
38 14 33 16 34 18 12 1 -14 1 -28 0 -32 0 -4 6 -5 14 -2 18 7 19 16 3 32 -17
17 0 28 22 14 11 -7 32 -12 47 -11 25 0 25 1 8 9 -18 7 -18 8 8 15 17 5 29 16
33 31 3 13 10 24 15 24 5 0 9 5 9 10 0 6 -11 3 -25 -6 -14 -9 -23 -20 -20 -24
4 -7 -34 -26 -42 -21 -8 4 -1 16 10 16 18 0 21 69 3 84 -13 11 -12 15 5 32 23
23 24 33 4 52 -13 13 -13 16 1 21 24 9 41 7 24 -4 -18 -11 -13 -16 25 -26 27
-6 29 -6 17 9 -11 13 -10 15 8 10 19 -5 21 -11 15 -39 -5 -30 -3 -36 20 -46
32 -14 43 -4 22 20 -18 20 -23 52 -8 52 11 0 38 -40 43 -65 4 -19 5 -18 17 4
12 21 11 26 -4 37 -9 7 -14 18 -10 24 5 8 10 8 20 0 9 -8 15 -8 20 0 3 5 -1
13 -9 16 -23 9 -20 24 4 24 25 0 36 25 20 45 -14 17 -32 11 -24 -9 3 -8 0 -17
-6 -21 -16 -10 -40 14 -40 41 0 21 4 24 29 19 17 -3 33 0 36 6 10 15 3 19 -33
22 -17 1 -29 4 -27 6 6 5 -43 51 -55 51 -5 0 -10 5 -10 10 0 13 12 13 44 0 17
-6 26 -6 26 0 0 6 -5 10 -11 10 -8 0 -8 4 0 14 17 20 -2 28 -25 11 -28 -21
-60 -18 -90 10 -22 21 -25 27 -14 40 9 10 9 15 1 15 -6 0 -11 11 -11 25 0 14
5 25 10 25 6 0 10 -9 10 -19 0 -11 5 -23 10 -26 8 -5 8 -11 0 -20 -9 -10 -7
-16 8 -24 17 -9 19 -8 15 10 -4 12 0 25 8 30 8 5 9 9 3 9 -25 0 -23 43 1 68
14 14 25 33 25 43 0 12 5 16 15 13 10 -4 15 0 15 12 0 15 2 16 9 5 8 -12 12
-12 26 2 15 16 14 19 -12 51 -15 19 -29 33 -32 30 -3 -3 -4 -21 -3 -42 l2 -37
-15 40 c-8 22 -15 41 -15 43 -1 11 -20 -1 -20 -13 0 -8 -4 -15 -9 -15 -5 0 -4
13 2 29 9 26 13 28 34 18 17 -8 27 -7 36 2 11 11 2 24 -26 34 -5 1 -7 16 -5
32 l4 30 13 -30 c13 -30 13 -30 24 -8 7 16 19 23 38 23 15 0 29 3 32 8 2 4 2
0 -1 -8 -2 -8 -6 -24 -8 -35 -4 -17 -3 -17 7 3 7 12 19 22 28 22 14 0 13 -2
-1 -16 -11 -11 -14 -24 -9 -38 4 -11 7 -41 6 -66 -1 -29 3 -49 13 -56 12 -8
12 -15 3 -32 -15 -28 -26 -28 -45 0 -13 18 -18 20 -28 9 -11 -10 -9 -15 6 -27
19 -14 19 -14 -5 -14 -19 -1 -21 -2 -8 -10 9 -5 32 -5 59 1 24 5 49 8 56 5 17
-7 24 19 20 72 -3 41 6 56 18 27 3 -8 13 -15 23 -15 19 -1 60 -27 52 -34 -2
-2 -15 -7 -28 -11 -21 -6 -23 -5 -18 14 5 22 -7 29 -18 10 -11 -16 4 -59 20
-59 8 0 15 7 15 15 0 12 4 13 25 3 44 -20 24 -35 -37 -29 -10 1 -18 -4 -18
-13 0 -9 6 -16 13 -16 17 0 77 -29 77 -37 0 -3 -14 -3 -30 -1 -41 6 -48 -8 -8
-16 17 -3 37 -1 44 5 18 15 34 2 34 -28 0 -21 2 -24 15 -13 13 11 15 8 16 -16
1 -16 1 -32 0 -36 0 -5 6 -8 14 -8 20 0 19 -16 -2 -24 -13 -5 -14 -9 -5 -15 7
-4 15 -42 19 -92 3 -46 11 -93 17 -104 5 -11 10 -23 11 -27 0 -3 3 -10 8 -14
4 -4 7 -18 7 -31 0 -13 6 -23 14 -23 15 0 32 -37 22 -47 -3 -3 2 -12 11 -21
14 -14 14 -16 -2 -22 -16 -6 -16 -8 -2 -22 9 -9 13 -18 10 -22 -4 -3 -1 -6 5
-6 7 0 12 -9 12 -20 0 -12 7 -32 16 -45 10 -16 17 -53 20 -102 2 -43 7 -110
12 -149 4 -40 4 -86 -1 -105 -13 -47 -3 -156 16 -177 24 -26 35 -64 41 -139 3
-37 11 -95 16 -128 6 -33 16 -89 21 -125 13 -79 79 -278 115 -346 14 -27 35
-74 46 -104 12 -30 28 -66 37 -80 10 -14 28 -47 42 -75 13 -27 26 -52 30 -55
3 -3 20 -30 38 -60 19 -30 36 -57 40 -60 9 -7 51 -68 51 -74 0 -6 61 -97 70
-106 28 -26 83 -120 87 -149 3 -20 9 -40 13 -46 4 -5 10 -35 13 -65 3 -30 10
-68 16 -85 5 -16 15 -73 21 -125 6 -52 13 -111 16 -130 7 -58 43 -154 74 -204
17 -26 47 -77 67 -114 54 -99 110 -175 119 -161 4 8 18 -10 37 -47 46 -92 54
-99 222 -189 50 -26 115 -64 145 -84 30 -20 68 -42 83 -49 15 -6 30 -20 34
-29 11 -30 22 -31 71 -6 32 15 81 27 152 34 58 7 116 18 130 25 18 9 20 13 8
14 -9 0 -16 8 -16 18 0 9 -3 26 -7 36 -6 13 -5 17 2 13 6 -4 26 5 44 20 17 15
38 28 45 29 7 1 28 9 45 18 18 9 40 16 51 16 10 0 18 4 18 9 0 5 8 12 18 14
12 3 11 5 -6 6 -13 0 -31 -3 -41 -9 -16 -8 -17 -6 -13 17 4 23 8 25 46 20 30
-4 36 -3 24 4 -23 13 -23 29 0 29 14 0 15 2 2 10 -10 6 -3 8 23 3 32 -5 36 -3
31 11 -4 12 0 16 15 16 15 0 21 6 21 23 1 19 2 20 11 5 5 -10 16 -15 25 -11
10 4 12 9 4 18 -14 17 -1 26 26 19 17 -4 26 -1 30 10 3 9 15 16 25 16 10 0 19
7 19 15 0 8 9 15 20 15 11 0 20 6 20 14 0 9 7 12 20 9 16 -4 19 -2 14 11 -10
26 13 45 52 42 24 -2 34 1 34 11 0 9 6 12 18 9 20 -6 33 1 48 29 7 11 19 19
27 19 9 -1 13 4 10 12 -3 9 2 14 15 14 12 0 23 4 27 10 3 5 13 6 22 3 13 -5
15 -2 10 11 -5 13 -3 17 7 13 13 -5 42 21 64 59 6 10 12 13 12 6 0 -7 13 0 28
16 15 15 35 31 45 35 9 3 17 12 17 18 0 6 9 9 20 6 12 -3 24 1 30 11 8 15 11
15 20 2 7 -11 8 -6 4 18 -6 29 -4 32 16 32 13 0 20 3 17 7 -9 8 42 63 57 63 6
0 16 10 21 22 6 13 20 24 33 26 21 3 26 12 23 40 -1 6 2 12 6 12 5 0 17 15 28
33 10 17 27 39 37 48 10 9 18 20 18 25 0 5 20 30 43 56 23 25 60 71 81 102 22
31 47 56 55 56 14 0 14 1 1 10 -10 6 -11 10 -2 10 6 0 12 6 12 14 0 8 3 16 8
18 17 7 104 132 136 195 31 62 44 90 92 203 8 19 22 48 31 63 8 16 17 40 19
55 3 15 29 97 60 182 30 85 65 191 78 235 13 44 35 118 49 163 24 82 49 124
64 108 9 -8 11 -286 3 -286 -3 0 -5 -36 -5 -80 0 -44 2 -80 5 -80 3 0 3 -41 0
-90 -4 -70 -2 -89 8 -85 8 3 7 -4 -4 -20 -9 -13 -14 -30 -11 -37 2 -7 0 -23
-4 -35 -6 -17 -4 -25 9 -33 14 -8 15 -11 3 -19 -11 -7 -11 -9 0 -14 9 -4 10
-6 2 -6 -7 -1 -10 -7 -7 -15 3 -8 -3 -17 -14 -20 -21 -7 -36 -54 -22 -71 18
-23 100 -260 111 -322 44 -250 -79 -625 -406 -1243 -40 -74 -100 -189 -135
-255 -34 -66 -97 -181 -140 -255 -42 -74 -94 -166 -115 -205 -21 -38 -57 -104
-80 -145 -187 -330 -255 -465 -302 -595 -14 -38 -33 -81 -43 -95 -9 -14 -20
-31 -24 -37 -6 -10 431 -13 2169 -13 l2176 0 -2 660 c-1 486 -4 660 -13 660
-6 0 -4 4 4 10 8 5 11 12 7 16 -3 4 -13 1 -22 -6 -13 -11 -14 -6 -10 36 3 31
0 51 -8 56 -7 5 0 8 18 8 27 1 25 3 -21 22 -34 13 -51 25 -50 36 0 9 -9 18
-23 22 -14 3 -27 12 -29 19 -3 9 2 11 18 6 17 -5 21 -3 18 10 -2 13 -15 17
-55 19 -60 2 -72 9 -49 31 15 15 16 15 16 0 0 -12 5 -15 16 -11 9 3 23 6 31 6
12 0 13 3 3 15 -6 8 -9 22 -6 33 8 26 -34 65 -60 55 -17 -6 -17 -5 -5 10 9 12
10 21 3 30 -6 6 -12 26 -15 42 l-4 30 -2 -32 c0 -18 -6 -33 -11 -33 -6 0 -9 3
-8 7 4 11 -7 12 -32 6 -13 -3 -20 -14 -20 -29 0 -24 10 -31 24 -17 15 15 45 9
50 -10 6 -23 0 -37 -15 -37 -6 0 -8 3 -6 8 7 9 -49 9 -59 0 -4 -5 0 -8 9 -8
10 0 26 -6 37 -12 16 -11 22 -9 34 7 21 29 29 13 11 -21 -8 -16 -15 -35 -15
-43 0 -8 -8 -20 -18 -27 -12 -9 -13 -13 -3 -14 7 0 11 -6 7 -15 -3 -9 0 -15
10 -15 8 0 12 -5 9 -10 -9 -14 28 -12 47 3 9 6 18 19 20 27 3 9 7 3 10 -14 5
-22 2 -30 -13 -33 -11 -3 -19 -14 -19 -24 0 -11 -5 -19 -11 -19 -6 0 -9 7 -6
15 4 8 2 17 -4 21 -13 8 -50 -26 -43 -38 4 -6 9 -6 14 1 5 9 10 8 20 -4 7 -8
8 -15 2 -15 -5 0 -13 -11 -16 -25 -4 -17 -11 -22 -22 -18 -9 3 -19 0 -24 -7
-6 -9 -12 -9 -29 -1 -23 13 -20 34 4 24 8 -3 15 -1 15 5 0 13 -27 23 -45 16
-21 -8 -19 -17 10 -48 19 -20 30 -25 50 -20 38 9 53 0 48 -30 -6 -29 -22 -36
-19 -9 1 13 -8 19 -33 21 -24 3 -32 0 -29 -10 3 -7 13 -13 23 -13 13 0 19 -8
19 -27 2 -35 -11 -36 -24 -3 -5 14 -15 24 -22 23 -7 -2 -12 5 -10 15 2 9 -2
17 -8 17 -9 0 -15 -28 -11 -57 2 -17 -16 -17 -22 0 -4 9 -6 9 -6 0 -2 -20 21
-27 33 -11 9 13 13 13 24 2 20 -22 14 -35 -14 -28 -23 6 -25 4 -19 -15 9 -30
-24 -28 -60 3 -30 26 -65 26 -44 0 15 -18 -11 -20 -29 -2 -9 9 -12 7 -13 -12
-1 -14 -1 -28 0 -32 0 -5 -6 -8 -14 -8 -9 0 -15 9 -15 25 0 17 -4 23 -15 19
-19 -8 -14 -40 10 -57 17 -13 17 -14 -3 -19 -15 -4 -19 -2 -15 8 3 9 -2 15
-13 16 -11 0 -23 2 -29 3 -5 2 -15 3 -21 4 -7 0 -14 9 -17 20 -5 22 -64 54
-70 38 -2 -6 -9 -7 -16 -3 -9 6 -9 11 -1 21 8 9 6 14 -6 19 -24 9 -42 7 -25
-3 9 -6 10 -11 2 -15 -6 -4 -13 4 -17 18 -6 25 -36 40 -51 26 -4 -5 -46 18
-93 51 -47 32 -96 64 -110 71 -14 7 -65 38 -115 68 -49 30 -103 62 -120 70
-16 8 -41 22 -55 31 -14 9 -43 27 -65 41 -22 13 -74 47 -115 74 -41 27 -82 53
-91 59 -9 5 -27 17 -40 26 -13 9 -62 42 -109 73 -168 111 -334 227 -338 238
-2 4 -10 8 -18 8 -9 0 -12 4 -9 10 3 6 -1 7 -9 4 -11 -4 -16 0 -16 10 0 9 -7
16 -15 16 -8 0 -15 4 -15 8 0 4 -15 13 -32 20 -27 10 -30 14 -18 22 16 10 8
14 -22 11 -10 -1 -18 4 -18 11 0 7 -7 26 -15 42 -8 15 -12 33 -8 40 4 6 -1 5
-10 -3 -13 -10 -20 -11 -30 -2 -8 6 -16 10 -18 8 -3 -1 3 5 13 15 22 20 23 28
3 28 -7 0 -18 -7 -23 -16 -8 -15 -10 -14 -16 2 -5 12 -1 23 8 30 17 12 22 29
6 19 -5 -3 -10 0 -11 7 0 7 -5 3 -11 -9 -15 -32 -31 -29 -24 4 3 16 3 22 0 15
-3 -7 -15 -17 -27 -23 -18 -9 -20 -9 -9 2 14 16 16 33 2 24 -15 -9 -100 36
-101 54 -2 27 2 46 12 49 14 6 11 29 -5 35 -9 4 -16 -1 -19 -11 -3 -14 -6 -12
-14 8 -12 29 -8 40 16 40 18 0 41 18 41 32 0 5 -9 4 -19 -2 -29 -15 -38 -13
-44 11 -4 15 0 23 14 26 25 7 25 23 -1 23 -11 0 -20 -5 -20 -11 0 -6 -7 -8
-16 -5 -9 4 -22 2 -29 -4 -7 -6 -16 -7 -19 -2 -3 5 11 16 30 25 19 10 32 22
29 27 -3 6 1 10 10 10 23 0 30 27 15 56 -18 32 -34 31 -26 -3 5 -24 5 -25 -5
-9 -8 13 -8 25 0 42 6 13 8 31 5 39 -4 8 -1 15 6 15 6 0 18 7 26 15 12 11 13
19 3 36 -8 17 -8 23 1 29 9 6 8 9 -6 13 -16 4 -16 5 4 6 12 0 22 6 22 12 0 5
5 7 10 4 6 -3 10 1 10 10 0 9 -5 13 -10 10 -6 -4 -10 5 -10 19 0 22 -4 26 -27
25 -17 -1 -21 -3 -10 -6 25 -7 23 -59 -3 -66 -25 -6 -26 11 -3 29 10 8 13 14
6 14 -7 0 -24 12 -40 26 -18 17 -35 24 -50 21 -14 -3 -23 1 -23 8 0 8 8 11 19
8 12 -3 20 2 24 16 3 15 13 21 32 21 14 0 24 4 20 10 -3 5 -12 7 -20 4 -8 -3
-20 4 -27 15 -7 12 -19 21 -27 21 -11 0 -11 -3 -1 -15 10 -12 9 -15 -6 -16
-11 0 -14 -3 -6 -6 17 -7 15 -20 -5 -27 -10 -4 -14 -4 -11 0 11 10 -11 46 -24
38 -6 -4 -8 1 -4 14 5 15 1 21 -19 24 -14 3 -25 2 -25 -1 0 -4 -18 -6 -40 -6
-30 0 -42 4 -46 17 -3 10 -10 18 -15 18 -13 0 -11 -14 4 -29 10 -11 9 -13 -5
-8 -20 7 -24 -3 -7 -20 22 -22 4 -35 -20 -14 -13 12 -29 21 -35 21 -6 0 -5 -4
3 -9 11 -7 12 -16 4 -43 -6 -19 -11 -25 -12 -14 -1 13 -6 17 -21 13 -11 -3
-20 -1 -20 4 0 5 -7 9 -17 9 -13 0 -11 -4 7 -20 13 -11 27 -20 32 -20 5 0 6
-4 3 -10 -3 -5 -17 -10 -30 -10 -14 0 -25 -7 -28 -17 -4 -17 -5 -17 -6 0 0 9
-8 17 -16 17 -9 0 -12 6 -8 17 5 12 2 15 -9 10 -12 -4 -14 -1 -11 14 3 12 0
19 -8 19 -11 0 -11 3 1 11 12 8 10 9 -7 4 -19 -5 -23 -2 -23 14 0 11 -9 25
-20 31 -17 9 -19 8 -13 -7 3 -10 -8 -4 -26 15 -17 19 -29 38 -25 43 3 6 0 17
-7 25 -10 13 -8 19 14 38 17 15 25 29 21 39 -3 9 -2 22 3 29 4 7 9 38 10 68 2
67 7 97 16 106 4 4 7 16 7 27 0 26 22 90 34 98 4 4 6 13 4 20 -3 8 1 31 8 51
7 20 10 46 7 57 -3 12 -1 21 4 21 5 0 9 9 9 20 0 11 -6 20 -13 20 -7 0 -13 5
-13 10 0 6 5 10 10 10 16 0 11 47 -5 54 -13 4 -13 9 -3 25 6 10 18 17 25 14 7
-3 13 0 13 6 0 6 -4 11 -9 11 -11 0 -8 46 2 57 4 3 7 19 7 35 0 15 3 28 8 28
4 0 13 4 21 9 11 7 10 13 -8 32 -22 24 -22 24 -2 27 23 4 28 18 9 25 -10 3
-10 9 1 30 7 14 13 37 13 51 1 15 6 26 14 26 8 0 14 5 14 10 0 6 -5 10 -11 10
-5 0 -7 5 -4 10 13 21 -29 9 -73 -22 -36 -25 -57 -32 -92 -32 -25 0 -52 3 -61
7 -10 5 -19 1 -26 -15 -20 -42 -45 -123 -44 -145 0 -12 -7 -26 -16 -31 -11 -6
-14 -17 -10 -32 8 -30 -3 -81 -15 -74 -6 4 -7 -2 -3 -16 5 -15 4 -20 -4 -16
-6 4 -13 -5 -17 -21 -12 -55 -17 -67 -35 -86 -10 -11 -21 -33 -24 -48 -4 -16
-11 -29 -16 -29 -5 0 -9 -12 -9 -26 0 -21 -4 -24 -20 -19 -14 5 -20 2 -20 -9
0 -9 6 -16 13 -17 6 0 2 -5 -11 -12 -15 -6 -22 -17 -19 -28 3 -12 0 -15 -16
-11 -17 4 -19 1 -15 -16 4 -12 2 -22 -3 -22 -5 0 -9 -11 -9 -24 0 -13 -7 -29
-15 -36 -8 -7 -12 -16 -9 -21 3 -5 0 -9 -6 -9 -7 0 -9 -8 -5 -19 3 -10 -1 -24
-10 -31 -8 -7 -15 -9 -15 -5 0 4 -7 2 -15 -5 -8 -7 -13 -16 -10 -20 3 -4 -2
-13 -10 -20 -8 -7 -15 -19 -15 -26 0 -7 -13 -23 -29 -35 -16 -12 -32 -32 -35
-45 -4 -13 -10 -24 -15 -24 -5 0 -47 -37 -93 -82 -46 -45 -87 -81 -92 -80 -5
2 -15 -6 -23 -18 -8 -11 -21 -20 -29 -20 -15 0 -61 -68 -56 -83 4 -12 -60 -67
-78 -67 -9 0 -33 -16 -53 -35 -21 -20 -42 -33 -47 -30 -9 6 -60 -40 -60 -54 0
-15 -54 -71 -68 -71 -7 0 -25 -11 -40 -25 -15 -14 -35 -25 -45 -25 -18 0 -127
-104 -127 -121 0 -5 -6 -9 -14 -9 -8 0 -24 -16 -36 -35 -12 -19 -26 -35 -31
-35 -5 0 -9 -6 -9 -14 0 -8 -10 -16 -22 -18 -13 -2 -22 -9 -20 -16 1 -6 -5
-12 -13 -12 -8 0 -15 -6 -15 -14 0 -9 -7 -12 -19 -9 -12 3 -24 -3 -33 -16 -15
-21 -143 -111 -158 -111 -5 0 -33 -14 -62 -31 -34 -20 -71 -33 -108 -36 -30
-3 -57 -9 -60 -13 -3 -4 -31 -10 -62 -14 -44 -6 -58 -4 -58 5 0 10 -3 10 -11
2 -9 -9 -17 -9 -32 0 -15 9 -21 9 -24 0 -3 -7 -14 -13 -24 -13 -11 0 -18 -4
-15 -9 7 -11 -166 -2 -179 10 -5 5 -19 9 -32 9 -13 0 -23 5 -23 10 0 6 -13 10
-30 10 -29 0 -102 28 -108 43 -2 4 -11 7 -19 7 -9 0 -13 6 -9 15 3 10 -1 15
-12 15 -10 0 -23 5 -30 12 -7 7 -12 9 -12 4 0 -10 -30 20 -30 31 -1 19 -60 74
-77 71 -12 -2 -19 4 -21 20 -2 12 -17 32 -33 44 -16 12 -29 28 -29 35 0 7 -6
10 -14 7 -9 -3 -17 3 -21 15 -3 12 -11 21 -16 21 -6 0 -7 4 -4 10 3 5 -1 10
-9 10 -17 0 -59 54 -49 64 6 6 -12 10 -31 7 -24 -5 -47 12 -41 30 4 13 2 19
-9 19 -9 0 -16 8 -16 17 0 9 -3 14 -6 10 -8 -8 -62 42 -69 64 -10 29 -69 87
-87 84 -23 -4 -42 20 -63 82 -12 34 -23 49 -32 46 -8 -3 -13 2 -13 14 0 16
-24 77 -36 92 -2 2 -11 -2 -20 -10 -15 -12 -16 -11 -9 10 6 20 4 23 -9 18 -12
-5 -20 3 -32 32 -10 26 -24 41 -40 45 -20 5 -24 13 -24 42 0 28 -3 35 -15 30
-8 -3 -15 -1 -15 4 0 6 -6 10 -13 10 -7 0 -21 16 -30 36 -10 19 -21 33 -26 30
-5 -3 -12 10 -15 29 -4 20 -11 33 -15 30 -5 -3 -9 5 -10 18 -2 64 -13 95 -38
102 -15 3 -23 12 -22 23 4 47 -2 71 -21 77 -13 4 -20 15 -20 31 0 14 -7 27
-15 30 -9 4 -15 11 -14 18 2 12 -7 41 -22 68 -5 10 -9 29 -9 42 0 14 -5 28
-11 31 -6 4 -8 13 -5 21 3 8 1 14 -3 14 -12 0 -29 98 -34 195 -1 22 -6 46 -10
53 -5 6 -6 16 -3 20 2 4 1 14 -4 22 -5 9 -5 19 2 27 7 9 7 13 -1 13 -6 0 -11
7 -11 15 0 8 5 15 10 15 6 0 10 17 9 38 0 30 -2 33 -9 17 -8 -19 -9 -18 -11 5
-4 49 -8 85 -13 115 -2 17 -7 50 -10 74 -3 24 -8 46 -11 49 -2 3 0 11 6 19 9
10 7 18 -7 34 -15 17 -16 23 -5 41 10 16 10 22 1 28 -6 4 -11 20 -9 36 1 16
-1 37 -5 46 -10 22 -13 347 -3 341 4 -2 7 4 8 14 0 10 2 32 4 48 2 17 6 63 9
102 2 40 7 80 10 90 2 10 8 49 11 88 4 38 9 74 12 79 3 5 7 24 9 43 4 45 10
52 36 45 17 -4 20 -2 15 11 -4 10 -2 17 2 17 5 0 11 -5 13 -12 3 -8 11 -7 27
4 16 11 19 17 9 21 -10 4 -10 8 -1 14 6 4 14 20 18 35 4 14 16 37 28 49 12 13
21 27 20 31 -4 12 41 10 53 -2 7 -7 10 8 9 47 -3 77 -2 75 -23 69 -24 -8 -64
26 -60 50 5 27 -27 28 -40 2 -10 -22 -11 -23 -11 -2 -1 12 -4 36 -7 53 -5 24
-3 31 10 31 18 0 22 25 5 36 -6 4 -8 20 -5 39 4 19 2 36 -4 40 -5 3 -10 11
-10 16 0 6 5 7 12 3 8 -5 9 -2 4 12 -5 10 -8 25 -8 32 4 58 2 85 -7 96 -9 11
-9 15 1 19 8 4 9 8 3 14 -5 4 -10 16 -11 26 -2 53 -4 59 -19 54 -8 -4 -17 -2
-20 3 -4 6 9 11 27 11 29 2 29 3 7 6 -31 5 -47 50 -22 60 12 5 12 8 0 22 -11
13 -16 111 -7 131 1 3 2 12 1 21 -2 24 27 45 41 31 17 -17 33 -15 19 2 -7 8
-8 17 -3 20 5 3 7 16 5 28 -5 26 34 59 46 39 8 -12 191 -22 191 -11 0 4 15 15
33 24 17 8 26 16 20 16 -7 0 -13 4 -13 10 0 5 13 7 30 4 23 -5 30 -3 30 10 0
9 4 16 8 16 10 0 77 90 78 105 0 6 7 23 14 38 11 23 11 32 2 48 -18 28 -7 39
26 29 42 -13 242 -22 242 -11 0 6 17 13 38 17 46 10 52 11 79 12 23 2 107 72
86 72 -7 0 -13 5 -13 11 0 12 43 1 48 -12 7 -17 23 -9 34 19 6 15 10 31 9 35
-1 5 9 6 21 2 13 -4 31 -9 42 -12 10 -3 22 1 26 8 7 10 12 10 25 -1 14 -12 18
-12 26 1 13 20 11 29 -6 29 -19 0 -19 17 -1 36 16 16 61 20 51 4 -3 -5 -2 -10
4 -10 5 0 13 9 16 20 7 22 13 24 35 10 13 -9 13 -12 -3 -21 -22 -13 -12 -32
11 -20 20 11 112 2 112 -10 0 -5 12 -8 28 -7 62 4 82 -1 82 -22 0 -11 -4 -20
-10 -20 -5 0 -10 5 -10 10 0 6 -21 10 -46 10 -26 0 -43 -4 -39 -10 3 -5 19 -7
35 -3 22 4 31 1 36 -11 3 -9 10 -13 16 -10 5 3 18 -2 28 -11 14 -13 28 -15 58
-10 23 4 43 2 46 -3 3 -6 15 -8 26 -5 11 3 27 0 35 -7 12 -10 18 -10 32 1 11
10 14 10 9 2 -5 -9 1 -13 21 -14 25 0 26 -1 8 -9 -14 -6 -15 -9 -5 -9 9 -1 22
5 28 11 9 9 15 10 20 2 4 -6 19 -14 34 -18 23 -5 26 -3 21 10 -4 12 -2 15 8
12 8 -3 24 3 36 14 21 20 21 20 27 0 4 -11 13 -23 21 -26 8 -3 15 -12 15 -21
0 -12 4 -14 19 -5 30 16 60 12 73 -10 7 -11 16 -20 19 -20 4 0 5 9 2 20 -8 30
21 25 42 -6 12 -19 22 -24 38 -20 11 3 27 0 35 -7 13 -10 14 -8 8 13 -6 20 -5
22 3 8 7 -10 19 -14 31 -11 22 6 28 -12 7 -20 -7 -3 -5 -6 6 -6 10 -1 21 9 26
21 6 18 9 19 14 5 8 -21 27 -22 53 -3 19 15 19 15 -1 30 -16 13 -17 17 -6 25
11 7 11 9 0 14 -10 4 -9 6 4 6 25 1 21 21 -4 21 -18 0 -19 3 -9 15 9 11 17 12
30 5 13 -7 28 -6 47 1 l28 12 -25 7 c-22 7 -22 8 -5 11 11 1 26 2 33 2 6 -1
12 5 12 13 0 22 31 16 37 -6 3 -11 11 -20 18 -20 6 0 22 -9 34 -19 l22 -19
-32 -16 c-40 -20 -38 -20 -32 4 3 12 0 20 -7 20 -7 0 -10 -6 -7 -14 6 -16 -11
-36 -31 -36 -8 0 -21 -8 -28 -17 -10 -14 -15 -15 -25 -6 -10 10 -8 14 7 20 29
11 55 46 42 58 -7 7 -12 6 -15 -2 -3 -7 -13 -13 -23 -13 -21 0 -39 -20 -18
-20 8 -1 4 -9 -9 -19 -24 -20 -32 -38 -11 -25 6 4 8 3 4 -4 -9 -15 46 -40 70
-31 11 4 28 1 43 -8 15 -10 21 -11 16 -2 -6 9 -2 11 13 7 12 -4 20 -2 16 3 -3
5 2 9 10 9 9 0 16 -4 16 -10 0 -17 172 3 198 23 15 12 83 11 92 -2 7 -11 81
-1 74 10 -7 11 26 0 46 -16 8 -7 23 -15 32 -18 14 -5 16 0 11 31 -7 46 6 36
42 -32 19 -37 23 -51 14 -62 -8 -10 -5 -21 12 -46 59 -84 186 -188 229 -188
12 0 20 -7 20 -16 0 -12 6 -15 23 -10 12 4 38 10 59 13 34 5 38 3 62 -36 19
-30 24 -46 17 -59 -5 -9 -6 -32 -3 -51 3 -24 1 -32 -7 -27 -8 5 -8 0 -2 -16 4
-13 8 -35 7 -50 -1 -16 2 -28 6 -28 20 0 27 -49 12 -80 -13 -25 -14 -39 -4
-78 6 -26 20 -87 30 -137 18 -80 61 -226 88 -295 5 -14 9 -27 9 -30 0 -3 5
-15 12 -28 7 -13 14 -41 16 -63 3 -21 9 -49 16 -60 14 -26 28 -73 36 -114 3
-16 10 -33 15 -36 6 -4 8 -15 4 -24 -4 -10 1 -29 10 -43 12 -18 13 -27 6 -30
-9 -3 -8 -12 1 -35 9 -21 11 -51 7 -87 -3 -34 -1 -70 7 -92 9 -30 9 -38 0 -38
-7 -1 -5 -6 5 -13 9 -7 20 -25 23 -40 9 -36 22 -34 30 4 4 17 13 33 21 36 8 3
14 11 14 19 0 12 14 16 50 16 3 0 27 -3 53 -7 46 -6 48 -5 42 14 -4 13 -2 21
5 21 16 0 29 42 20 65 -6 16 -2 27 16 44 21 20 29 40 25 64 0 4 9 7 21 7 35 0
46 12 43 47 -2 20 3 34 12 37 17 7 20 -2 28 -76 4 -32 10 -60 14 -63 14 -8 32
75 35 165 3 71 9 99 31 145 20 43 29 54 36 44 6 -10 9 -10 9 -1 0 6 6 12 14
12 8 0 17 13 21 30 5 22 12 30 28 30 20 1 21 1 4 11 -12 7 -16 17 -12 29 3 11
2 34 -3 52 -9 37 8 114 22 101 5 -4 6 -2 2 5 -12 20 -15 92 -3 85 5 -3 7 0 5
8 -8 21 10 49 32 49 13 0 18 5 13 16 -4 11 -9 12 -16 5 -19 -19 -39 -13 -28 8
6 10 8 21 4 24 -3 4 -1 12 4 19 13 16 13 49 2 64 -6 7 -3 16 6 24 8 7 12 17 8
23 -4 6 -7 21 -8 34 0 16 5 23 20 24 17 1 17 2 3 6 -22 6 -23 12 -1 28 11 8
14 18 8 31 -9 22 -10 198 -1 213 4 5 -2 14 -11 20 -10 6 -13 11 -7 11 6 0 16
17 22 39 15 49 15 61 0 61 -14 0 -16 62 -3 93 4 10 5 31 1 47 -3 19 -1 30 5
30 8 0 8 4 2 13 -11 13 -23 103 -28 216 -2 40 -8 78 -14 84 -15 15 -14 27 2
27 10 0 13 15 10 63 -2 34 -4 74 -3 90 0 15 -3 27 -8 27 -4 0 -8 27 -9 60 0
33 -9 84 -18 113 -28 84 -33 93 -93 180 -28 39 -31 47 -16 47 15 0 15 3 -4 23
-12 13 -19 27 -15 30 3 4 -1 7 -10 7 -9 0 -17 7 -17 17 0 9 -12 32 -27 52 -16
20 -27 39 -25 44 1 4 -9 13 -23 19 -14 6 -25 20 -25 30 0 10 -10 22 -23 27
-31 12 -57 53 -51 79 3 11 1 23 -5 26 -6 4 -11 14 -11 23 0 9 -7 23 -16 32
-15 16 -86 121 -112 168 -7 13 -18 23 -24 23 -7 0 -6 5 1 14 9 11 9 16 -1 23
-25 15 -49 63 -42 85 4 14 3 18 -6 13 -14 -9 -40 24 -33 42 3 7 -2 13 -10 13
-8 0 -29 17 -46 38 -18 21 -28 28 -24 17 6 -18 5 -18 -10 -6 -24 19 -34 5 -14
-17 16 -18 16 -20 -1 -35 -10 -10 -23 -17 -29 -17 -6 0 -16 -7 -23 -15 -10
-12 -15 -13 -21 -4 -5 9 -11 10 -21 2 -7 -6 -26 -13 -41 -17 -35 -8 -30 -29 9
-37 27 -6 27 -7 4 -8 -24 -1 -24 -2 8 -21 28 -17 31 -22 20 -39 -11 -18 -14
-18 -47 -4 -20 9 -43 19 -52 24 -9 4 -32 11 -51 14 -48 9 -48 42 0 36 17 -3
15 6 -9 30 -18 18 -20 18 -17 2 2 -15 -3 -18 -32 -16 -28 2 -32 1 -17 -8 15
-9 15 -12 3 -25 -19 -19 -47 -18 -40 1 7 18 -12 20 -20 3 -3 -10 -8 -9 -18 2
-7 8 -22 20 -33 26 -11 6 -21 24 -23 39 -5 36 -27 58 -50 51 -13 -5 -26 6 -50
39 -30 43 -54 56 -66 36 -3 -5 -14 -11 -25 -14 -15 -3 -17 0 -13 17 5 20 4 20
-15 3 -11 -10 -44 -22 -74 -26 -30 -5 -65 -14 -79 -19 -14 -6 -33 -13 -44 -16
-14 -5 -16 -9 -7 -20 13 -15 -4 -34 -55 -60 -28 -14 -33 -14 -44 -1 -15 18
-31 20 -27 3 1 -7 -8 -14 -20 -16 -34 -5 -26 36 8 43 15 4 33 13 40 21 10 12
2 14 -49 14 -43 0 -61 4 -66 15 -3 8 2 19 12 24 13 8 14 10 2 11 -9 0 -11 3
-4 10 6 6 39 13 75 17 35 3 74 9 87 14 13 5 36 9 52 9 16 0 31 4 34 9 7 11 44
3 71 -16 11 -7 35 -13 53 -13 27 0 33 3 28 16 -3 9 -6 18 -6 20 0 2 -9 4 -20
4 -11 0 -20 6 -20 13 0 18 -51 40 -64 27 -16 -16 -22 -12 -21 18 0 23 -4 27
-30 30 -29 2 -29 2 -10 -14 18 -15 18 -16 2 -10 -10 3 -21 6 -23 6 -2 0 -4 7
-4 15 0 8 -5 15 -11 15 -5 0 -8 -3 -5 -8 2 -4 -9 -15 -25 -24 -16 -10 -31 -13
-34 -8 -4 6 -17 2 -31 -7 -22 -14 -27 -14 -35 -2 -8 12 -11 12 -20 -1 -8 -11
-12 -12 -16 -2 -2 6 -9 10 -13 7 -12 -7 -60 5 -60 15 0 16 33 41 61 47 29 5
46 20 36 29 -13 13 -73 12 -115 -2 -26 -9 -62 -14 -84 -11 -35 5 -51 -3 -60
-28 -4 -14 -37 -17 -56 -5 -16 9 -16 9 1 10 19 0 61 25 90 53 10 10 22 15 27
12 6 -3 7 1 4 9 -5 12 -15 14 -45 10 -21 -4 -51 -3 -66 1 -28 7 -28 7 12 19
28 8 41 18 43 33 3 17 14 23 67 34 59 12 64 14 50 29 -8 9 -15 22 -15 28 0 7
-14 12 -31 12 -26 0 -29 3 -20 14 13 16 59 27 66 16 2 -4 29 -5 58 -2 44 3 58
1 74 -14 27 -27 84 -30 107 -5 16 17 28 19 109 15 50 -2 93 -7 96 -11 3 -5 17
-14 31 -20 l25 -12 -27 0 c-16 -1 -28 -5 -28 -11 0 -5 12 -12 28 -16 15 -3 36
-9 47 -13 24 -9 48 -3 39 10 -3 5 12 8 33 8 21 -1 30 -3 21 -6 -10 -2 -18 -13
-18 -23 0 -15 -11 -19 -62 -25 -57 -7 -60 -8 -38 -20 13 -7 39 -11 57 -10 29
3 32 1 22 -11 -6 -8 -14 -12 -17 -10 -7 8 -42 -13 -42 -24 0 -6 9 -10 20 -10
11 0 20 -4 20 -8 0 -14 48 -33 56 -21 4 7 10 6 18 -1 7 -5 31 -16 52 -24 l39
-15 -32 0 c-18 -1 -33 3 -33 9 0 5 -7 7 -16 3 -14 -5 -12 -8 8 -19 14 -7 28
-23 31 -35 4 -15 11 -19 24 -15 13 4 23 -3 35 -24 12 -20 22 -28 33 -24 10 4
15 2 13 -7 -2 -7 5 -15 16 -17 13 -3 16 0 11 9 -6 9 -3 10 11 5 18 -8 106 -36
111 -36 2 0 2 6 0 13 -1 7 7 11 21 9 12 -2 22 2 22 7 0 6 -4 11 -10 11 -5 0
-10 6 -10 14 0 8 -7 17 -16 20 -14 5 -14 9 -3 22 10 12 10 17 0 23 -21 13 29
21 53 9 20 -11 20 -10 6 7 -29 35 -85 84 -97 85 -7 0 -13 3 -13 8 0 4 -16 16
-35 26 -19 11 -35 23 -35 28 0 4 -6 8 -14 8 -8 0 -18 5 -22 11 -5 8 1 10 20 7
21 -4 26 -1 26 14 0 10 -7 21 -15 24 -8 4 -15 14 -15 24 0 15 -11 20 -46 26
-28 4 -41 10 -34 14 8 5 10 15 6 26 -5 12 -10 14 -14 8 -4 -6 -18 -10 -32 -9
-18 1 -24 7 -22 20 3 16 2 17 -12 6 -13 -11 -16 -11 -16 2 0 8 -11 17 -25 19
-13 3 -22 1 -19 -3 9 -15 -8 -10 -27 7 -9 8 -36 17 -59 19 -26 2 -50 12 -61
24 -15 16 -24 18 -51 10 -25 -7 -34 -6 -41 6 -4 8 -17 15 -27 15 -10 0 -21 4
-24 8 -3 5 -31 7 -63 6 -32 -1 -66 2 -76 8 -12 6 -23 6 -32 -2 -16 -13 -81 -8
-97 8 -7 7 -17 12 -23 12 -5 0 -4 -4 3 -9 10 -6 8 -10 -8 -14 -16 -4 -24 -1
-27 13 -6 21 -43 34 -57 20 -6 -6 -14 -3 -22 7 -10 15 -16 15 -38 5 -15 -7
-36 -12 -46 -12 -11 0 -20 -5 -20 -11 0 -8 -4 -8 -14 0 -13 11 -76 8 -99 -5
-9 -6 -9 -5 0 7 10 13 7 15 -23 15 -24 0 -39 6 -46 17 -5 10 -14 14 -21 10 -7
-4 -25 -8 -42 -8 -21 0 -29 -4 -27 -14 3 -14 -15 -31 -33 -31 -5 0 -3 5 5 10
13 8 13 10 -2 10 -9 0 -19 9 -23 19 -8 27 -28 17 -44 -22 -11 -25 -14 -28 -18
-14 -3 11 -14 28 -25 39 -16 16 -22 17 -34 7 -12 -10 -16 -9 -20 9 -6 22 -56
48 -73 38 -5 -3 -11 0 -14 6 -3 10 -9 10 -28 1 -13 -6 -40 -15 -59 -19 -19 -3
-41 -11 -48 -17 -9 -7 -16 -7 -23 0 -14 14 -49 5 -49 -12 0 -7 -6 -16 -13 -18
-9 -4 -9 -6 1 -6 6 -1 12 -6 12 -12 0 -6 -8 -8 -19 -4 -11 3 -22 1 -26 -5 -5
-8 -11 -8 -21 1 -11 9 -17 9 -29 -1 -8 -7 -15 -9 -15 -4 0 4 -6 0 -13 -11 -10
-13 -16 -15 -21 -6 -4 6 -16 9 -27 6 -12 -4 -19 -2 -19 7 0 7 -16 -5 -36 -26
-31 -34 -39 -38 -55 -28 -24 15 -29 15 -29 -2 0 -15 -21 -26 -49 -26 -10 0
-26 -9 -36 -20 -10 -11 -28 -20 -41 -20 -12 0 -30 -7 -39 -16 -14 -15 -18 -15
-33 -1 -21 18 -49 16 -82 -5 -14 -9 -35 -19 -47 -23 -14 -4 -23 -14 -23 -26 0
-18 -20 -26 -33 -12 -12 12 -58 9 -69 -4 -8 -10 -14 -11 -25 -1 -12 10 -14 9
-11 -7 1 -10 -3 -20 -10 -22 -6 -3 -12 0 -12 6 0 6 -4 11 -10 11 -5 0 -10 -12
-10 -26 0 -23 -2 -25 -16 -13 -14 11 -19 9 -35 -11 -16 -21 -20 -23 -28 -10
-9 12 -11 12 -17 -3 -7 -18 -64 -25 -64 -7 0 21 -28 -3 -33 -30 -5 -23 -10
-27 -27 -23 -14 4 -20 0 -21 -11 -3 -30 -4 -34 -13 -43 -5 -5 -6 -3 -2 5 5 8
-2 16 -19 22 -37 14 -55 12 -55 -6 0 -12 7 -14 33 -10 24 5 27 4 12 -3 -33
-16 -45 -12 -55 15 -13 32 -29 23 -24 -13 2 -16 5 -37 7 -48 1 -12 -5 -21 -18
-23 -16 -4 -17 -2 -7 11 10 12 10 17 1 23 -7 4 -17 0 -23 -8 -8 -10 -20 -12
-46 -7 -37 8 -53 3 -31 -10 10 -6 9 -10 -4 -15 -26 -10 -33 -7 -38 12 -3 9 -4
6 -4 -8 1 -14 -8 -38 -18 -53 -16 -21 -28 -26 -62 -27 -23 0 -45 5 -49 12 -5
8 -2 9 9 5 9 -3 19 -2 23 4 3 6 13 8 21 5 8 -3 24 3 35 14 l22 20 -27 0 c-15
0 -27 -4 -27 -10 0 -5 -4 -10 -10 -10 -5 0 -10 8 -10 17 0 9 -3 13 -7 9 -5 -4
-8 -13 -8 -19 0 -5 -11 -11 -24 -12 -14 -1 -27 -7 -29 -13 -9 -27 -30 -11 -27
21 4 44 4 44 20 23 10 -14 18 -17 25 -10 12 12 -24 64 -45 64 -7 0 -15 6 -18
13 -4 10 8 13 46 12 40 -1 51 2 55 17 2 10 8 18 13 18 18 0 9 19 -12 25 -27 9
-51 -12 -29 -25 8 -5 12 -11 9 -15 -9 -8 -69 6 -69 17 0 5 9 6 20 3 28 -9 25
10 -5 29 -25 17 -25 17 -8 47 15 26 22 29 48 23 35 -7 56 -22 54 -38 -4 -20
13 -46 28 -46 13 0 13 2 2 16 -12 15 -11 16 9 10 13 -5 22 -3 22 3 0 6 -4 11
-10 11 -5 0 -10 5 -10 10 0 6 12 8 28 5 15 -3 21 -2 14 1 -22 10 -12 24 18 24
21 0 30 5 30 16 0 10 -6 13 -19 9 -10 -3 -31 0 -47 6 -24 10 -26 13 -10 17 10
2 22 -2 27 -9 10 -17 22 -5 24 22 1 15 -4 20 -19 18 -47 -3 -66 2 -66 17 0 8
5 12 10 9 6 -3 10 -1 10 5 0 7 -7 9 -16 6 -9 -3 -18 -6 -20 -6 -2 0 -4 -11 -4
-25 0 -14 -4 -25 -10 -25 -5 0 -10 -4 -10 -10 0 -5 9 -10 20 -10 10 0 24 -9
30 -19 12 -24 -3 -36 -20 -16 -7 8 -19 15 -26 15 -8 0 -14 4 -14 8 0 4 -12 9
-26 10 -14 1 -32 8 -40 16 -16 17 -9 46 12 46 17 0 18 -17 2 -23 -7 -2 -10 -8
-6 -12 5 -5 17 0 27 9 17 15 18 22 8 44 -9 20 -9 26 1 30 20 6 13 20 -8 15
-11 -3 -20 -1 -20 5 0 6 14 12 32 14 29 3 31 4 15 19 -13 14 -14 59 -1 59 12
0 83 -52 107 -78 25 -26 27 -31 13 -39 -12 -7 -7 -9 21 -10 33 -1 35 0 20 12
-9 6 -17 17 -17 24 0 6 -5 11 -11 11 -5 0 -7 5 -4 10 3 6 -1 10 -9 10 -9 0
-16 4 -16 9 0 5 -9 11 -20 14 -11 3 -20 10 -20 16 0 6 7 8 15 5 9 -4 18 1 22
12 3 11 11 23 17 27 6 5 -4 5 -21 2 -21 -4 -33 -3 -33 4 0 14 43 24 72 16 18
-5 20 -4 8 4 -17 12 -80 11 -80 -1 0 -4 -4 -8 -9 -8 -5 0 -8 11 -7 25 1 23 4
24 49 19 31 -3 47 0 47 7 0 6 -9 9 -20 6 -11 -3 -20 -1 -20 5 0 6 -7 8 -15 4
-8 -3 -15 -1 -15 4 0 6 5 10 12 10 9 0 9 3 1 11 -8 8 -17 8 -31 0 -18 -10 -32
-6 -32 10 0 3 14 9 30 11 23 3 37 -2 55 -20 13 -13 29 -22 36 -20 8 3 7 9 -5
20 -9 9 -16 19 -16 23 0 12 25 32 36 28 6 -2 19 6 29 17 16 17 16 20 2 20 -9
0 -19 -5 -23 -11 -4 -8 -9 -7 -15 2 -6 10 -9 11 -9 2 0 -7 -7 -13 -15 -13 -9
0 -12 6 -9 15 5 11 -1 15 -22 15 -22 0 -25 3 -14 10 9 6 -516 9 -1398 10
l-1412 0 0 -4800z m2700 4754 c0 -8 -4 -12 -10 -9 -5 3 -10 10 -10 16 0 5 5 9
10 9 6 0 10 -7 10 -16z m116 -19 c-14 -14 -16 -14 -16 -2 0 9 6 17 13 20 19 7
21 -1 3 -18z m-176 -1 c0 -8 -5 -12 -10 -9 -6 4 -8 11 -5 16 9 14 15 11 15 -7z
m113 9 c-7 -2 -19 -2 -25 0 -7 3 -2 5 12 5 14 0 19 -2 13 -5z m12 -23 c-11 -5
-27 -9 -35 -9 -9 0 -8 4 5 9 11 5 27 9 35 9 9 0 8 -4 -5 -9z m-58 -26 c-3 -3
-12 -4 -19 -1 -8 3 -5 6 6 6 11 1 17 -2 13 -5z m-27 -30 c0 -2 -9 -4 -21 -4
-11 0 -18 4 -14 10 5 8 35 3 35 -6z m53 -20 c11 -14 16 -28 12 -32 -3 -4 -11
2 -17 12 -8 15 -12 16 -19 5 -6 -11 -11 -11 -21 -1 -9 9 -8 12 6 12 12 0 16 5
12 15 -9 23 7 17 27 -11z m-254 -1 c-3 -21 3 -32 19 -36 12 -3 13 -5 2 -6 -24
-1 -43 16 -37 33 6 16 18 22 16 9z m81 -39 c0 -8 -5 -12 -10 -9 -6 4 -8 11 -5
16 9 14 15 11 15 -7z m-300 -18 c0 -3 -4 -8 -10 -11 -5 -3 -10 -1 -10 4 0 6 5
11 10 11 6 0 10 -2 10 -4z m508 -37 c-17 -10 -28 -2 -21 17 4 11 8 12 20 3 11
-10 11 -14 1 -20z m-237 -39 c9 -6 6 -12 -14 -21 -34 -15 -40 -9 -27 27 8 21
13 25 19 15 5 -7 15 -17 22 -21z m2529 20 c0 -5 -5 -10 -11 -10 -5 0 -7 5 -4
10 3 6 8 10 11 10 2 0 4 -4 4 -10z m-2600 -16 c0 -8 -4 -12 -10 -9 -5 3 -10
10 -10 16 0 5 5 9 10 9 6 0 10 -7 10 -16z m1661 -17 c-25 -31 -128 -95 -139
-88 -18 11 34 54 118 97 28 15 38 11 21 -9z m-1591 -27 c0 -5 -2 -10 -4 -10
-3 0 -8 5 -11 10 -3 6 -1 10 4 10 6 0 11 -4 11 -10z m2903 -7 c-3 -7 -16 -13
-29 -13 -16 0 -22 4 -18 14 3 8 16 13 28 12 14 0 22 -6 19 -13z m-2853 -19 c0
-14 -4 -23 -9 -20 -5 4 -11 1 -13 -6 -3 -8 -7 -6 -11 5 -3 9 -2 17 3 17 6 0
10 7 10 15 0 8 5 15 10 15 6 0 10 -12 10 -26z m50 -14 c0 -5 -4 -10 -10 -10
-5 0 -10 5 -10 10 0 6 5 10 10 10 6 0 10 -4 10 -10z m3017 -16 c-3 -3 -12 -4
-19 -1 -8 3 -5 6 6 6 11 1 17 -2 13 -5z m-2993 -15 c-3 -5 -12 -9 -20 -9 -18
0 -18 -17 1 -37 25 -24 12 -38 -31 -36 -21 2 -34 -1 -28 -5 6 -4 15 -18 19
-32 l8 -25 -21 25 c-19 21 -23 23 -33 10 -8 -11 -12 -12 -16 -2 -2 6 -11 12
-18 12 -7 0 -15 6 -18 13 -3 9 -7 9 -17 0 -9 -9 -8 -14 9 -22 23 -13 28 -37 9
-44 -10 -4 -10 -7 0 -15 10 -7 10 -11 -2 -21 -8 -7 -12 -19 -9 -28 4 -11 0
-14 -18 -11 -28 4 -40 38 -14 38 14 0 15 3 5 15 -7 8 -18 15 -26 15 -13 0 -28
32 -33 70 0 6 -7 10 -15 10 -7 0 -16 11 -18 25 -6 27 6 34 16 10 3 -8 12 -15
20 -15 8 0 17 -14 22 -32 6 -29 28 -57 46 -58 3 0 -3 18 -14 41 -10 22 -18 42
-16 44 2 1 29 -1 60 -4 37 -5 59 -3 62 3 2 8 10 7 24 -1 18 -11 32 -8 32 6 0
3 -13 12 -30 19 -16 8 -30 21 -30 29 0 13 3 13 15 3 13 -11 19 -8 17 11 0 3
15 6 34 6 19 1 31 -3 28 -8z m2856 1 c0 -5 -4 -10 -10 -10 -5 0 -10 5 -10 10
0 6 5 10 10 10 6 0 10 -4 10 -10z m-2996 -52 c-10 -16 -34 6 -34 31 l0 26 19
-25 c11 -13 17 -28 15 -32z m2876 22 c-19 -13 -30 -13 -30 0 0 6 10 10 23 10
18 0 19 -2 7 -10z m-1490 -29 c0 -5 -16 -16 -36 -26 -25 -12 -33 -20 -24 -25
21 -13 2 -28 -35 -27 -28 1 -32 3 -18 10 10 5 32 22 48 37 25 23 39 32 63 39
1 1 2 -3 2 -8z m-200 -36 c0 -13 -37 -45 -52 -45 -27 0 -22 19 7 26 14 3 25
10 25 15 0 5 5 9 10 9 6 0 10 -2 10 -5z m-1057 -21 c-3 -7 -11 -10 -19 -7 -20
8 -17 22 5 20 10 0 17 -7 14 -13z m-87 -49 c5 -20 11 -24 28 -20 11 2 15 2 9
-1 -18 -8 -16 -34 2 -34 8 0 15 -7 15 -16 0 -11 -6 -14 -22 -8 -21 6 -21 6 -5
-10 9 -10 21 -15 25 -12 5 3 7 -6 4 -19 -3 -18 0 -25 12 -25 9 0 16 8 16 17 0
9 2 14 5 11 3 -3 2 -18 -1 -35 -6 -30 -7 -30 -34 -17 -20 11 -27 20 -23 34 4
14 0 20 -11 20 -9 0 -16 4 -16 9 0 5 -8 11 -18 13 -22 6 -29 58 -7 58 8 0 15
-7 15 -17 0 -9 3 -14 6 -10 11 11 -7 67 -22 67 -9 0 -12 5 -9 10 11 18 24 11
31 -15z m-173 2 c7 -20 -7 -80 -19 -84 -7 -2 -10 6 -7 22 3 15 1 25 -6 25 -6
0 -11 4 -11 10 0 5 7 7 17 3 13 -5 15 -2 11 15 -7 24 7 31 15 9z m-153 -22 c7
-8 8 -15 2 -15 -5 0 -15 7 -22 15 -7 8 -8 15 -2 15 5 0 15 -7 22 -15z m1473
-17 c-4 -8 -33 -11 -33 -4 0 2 3 11 6 20 5 12 9 13 19 3 7 -7 11 -15 8 -19z
m86 12 c15 0 31 3 34 7 10 10 58 10 64 0 7 -12 -28 -49 -43 -43 -6 2 -16 0
-21 -5 -6 -6 -36 -13 -67 -16 -31 -3 -56 -10 -56 -16 0 -5 9 -7 20 -4 33 8 12
-11 -23 -21 -51 -16 -149 -24 -142 -12 3 5 14 10 24 10 10 0 24 7 31 15 7 8
18 15 25 15 7 0 15 6 18 14 3 8 20 17 38 21 41 9 68 25 65 39 -2 6 -1 8 1 4 3
-5 17 -8 32 -8z m1200 -45 c1 -5 -3 -5 -7 1 -4 7 -16 13 -26 15 -26 5 -32 26
-9 31 17 4 42 -24 42 -47z m-109 30 c0 -11 -70 -35 -103 -35 -34 0 -39 -2 -34
-20 4 -16 0 -20 -21 -20 -22 0 -24 2 -12 11 12 8 10 10 -10 8 -44 -2 -60 1
-60 12 0 6 7 9 15 5 18 -7 47 3 40 14 -5 8 58 27 105 32 26 3 80 -2 80 -7z
m-2240 -5 c0 -5 -4 -10 -10 -10 -5 0 -10 5 -10 10 0 6 5 10 10 10 6 0 10 -4
10 -10z m2280 0 c0 -5 -7 -10 -15 -10 -8 0 -15 5 -15 10 0 6 7 10 15 10 8 0
15 -4 15 -10z m-2502 -12 c-6 -18 -28 -21 -28 -4 0 9 7 16 16 16 9 0 14 -5 12
-12z m-87 -25 c-8 -15 -10 -15 -11 -2 0 17 10 32 18 25 2 -3 -1 -13 -7 -23z
m2299 17 c-20 -13 -50 -13 -50 0 0 6 15 10 33 10 24 0 28 -3 17 -10z m-2138
-36 c-3 -19 -9 -23 -21 -18 -9 3 -29 10 -46 14 -25 6 -27 9 -12 15 10 4 27 1
42 -9 24 -16 25 -15 25 4 0 11 4 20 9 20 4 0 6 -12 3 -26z m3617 -27 c0 -9 -2
-9 -6 1 -2 6 -11 12 -19 12 -8 0 -14 5 -14 10 0 7 6 7 20 0 11 -6 20 -16 19
-23z m-2770 19 c-13 -13 -82 -46 -95 -46 -12 0 -12 3 3 19 10 10 27 21 38 24
26 6 60 8 54 3z m100 -10 c-12 -10 -49 -16 -49 -7 0 5 10 11 23 13 22 4 34 1
26 -6z m-1009 -39 c-10 -9 -14 -9 -17 1 -3 6 -9 10 -14 6 -5 -3 -9 -1 -9 4 0
17 13 21 32 11 16 -9 17 -13 8 -22z m920 29 c0 -3 -4 -8 -10 -11 -5 -3 -10 -1
-10 4 0 6 5 11 10 11 6 0 10 -2 10 -4z m-801 -20 c10 -12 8 -13 -8 -9 -12 3
-18 9 -15 14 7 12 10 11 23 -5z m912 3 c-16 -6 -21 -14 -16 -27 4 -12 3 -14
-5 -6 -16 16 -1 44 24 43 20 0 20 -1 -3 -10z m-1218 -34 c-7 -21 -12 -19 -10
4 0 11 5 18 9 15 4 -3 5 -11 1 -19z m141 10 c3 -8 1 -15 -4 -15 -6 0 -10 7
-10 15 0 8 2 15 4 15 2 0 6 -7 10 -15z m656 7 c0 -5 -12 -14 -27 -21 l-28 -11
24 20 c26 22 31 24 31 12z m333 -22 c-4 -4 -23 -10 -41 -14 -37 -6 -35 10 2
23 23 9 52 2 39 -9z m1523 8 c3 -4 15 -8 27 -8 21 -1 21 -1 4 -15 -18 -13 -17
-14 5 -17 22 -4 22 -5 3 -12 -39 -16 -90 -37 -112 -48 -23 -11 -31 -28 -15
-28 5 0 9 -7 9 -15 0 -9 -5 -14 -11 -12 -6 2 -16 -3 -22 -11 -6 -9 -29 -17
-51 -18 -22 -1 -50 -5 -63 -9 -18 -6 -21 -3 -18 11 2 11 12 20 23 23 36 6 49
51 15 51 -30 0 -24 19 10 34 17 7 27 15 23 19 -3 4 6 7 21 7 15 0 40 7 57 15
27 14 30 14 36 0 5 -13 7 -14 14 -3 13 20 11 24 -13 36 -21 10 -19 11 15 9 21
0 41 -5 43 -9z m-2479 -30 c-3 -7 -5 -2 -5 12 0 14 2 19 5 13 2 -7 2 -19 0
-25z m170 20 c4 -7 6 -22 4 -32 -2 -14 2 -17 14 -13 10 5 14 3 9 -5 -5 -7 1
-9 20 -6 22 5 26 2 21 -13 -4 -11 -2 -19 4 -19 6 0 11 -5 11 -10 0 -6 9 -20
20 -32 22 -24 26 -38 10 -38 -6 0 -16 11 -22 25 -12 27 -23 32 -32 13 -3 -7
-3 -3 -1 8 4 16 1 22 -11 20 -11 0 -20 8 -24 24 -4 17 -8 21 -14 12 -4 -7 -3
-18 3 -25 6 -8 6 -18 1 -27 -8 -12 -10 -12 -10 4 0 12 -5 16 -15 12 -19 -7
-19 5 -1 30 13 17 13 21 -6 35 -13 10 -19 23 -15 33 8 19 23 21 34 4z m53 -18
c0 -5 -4 -10 -9 -10 -6 0 -13 5 -16 10 -3 6 1 10 9 10 9 0 16 -4 16 -10z m340
6 c0 -3 -4 -8 -10 -11 -5 -3 -10 -1 -10 4 0 6 5 11 10 11 6 0 10 -2 10 -4z
m-615 -36 c-3 -5 -12 -10 -18 -10 -7 0 -6 4 3 10 19 12 23 12 15 0z m360 -10
c0 -8 3 -19 7 -25 6 -10 -7 -55 -16 -55 -3 0 -3 7 0 15 4 8 1 15 -6 15 -7 0
-9 8 -5 20 4 12 1 28 -6 37 -11 13 -11 15 6 11 11 -2 20 -10 20 -18z m-295
-21 c0 -5 -5 -9 -11 -9 -5 0 -8 -4 -4 -9 3 -5 1 -12 -4 -15 -5 -4 -9 7 -9 23
1 20 5 28 14 24 8 -3 14 -9 14 -14z m345 11 c-3 -5 -10 -10 -16 -10 -5 0 -9 5
-9 10 0 6 7 10 16 10 8 0 12 -4 9 -10z m375 1 c0 -11 -40 -22 -52 -15 -5 3 -6
10 -3 15 8 12 55 12 55 0z m2085 -11 c-3 -5 -13 -10 -21 -10 -8 0 -14 -4 -14
-10 0 -5 9 -10 20 -10 24 0 27 -15 4 -24 -20 -8 -30 -1 -37 24 -3 12 1 24 11
30 22 12 45 13 37 0z m-82 -15 c10 -4 16 -13 13 -21 -3 -7 0 -15 7 -18 7 -2 4
-5 -5 -5 -10 -1 -18 -5 -18 -11 0 -6 -27 -10 -60 -10 -33 0 -60 -4 -60 -10 0
-5 -10 -10 -23 -10 -13 0 -27 -4 -32 -9 -11 -10 -75 -25 -75 -18 0 8 85 47
102 47 9 0 21 7 28 15 13 16 1 21 -15 7 -6 -5 -21 -6 -34 -3 l-24 7 29 19 c48
33 115 40 167 20z m-2658 -4 c3 -5 1 -12 -5 -16 -5 -3 -10 1 -10 9 0 18 6 21
15 7z m62 -27 c-3 -3 -12 -4 -19 -1 -8 3 -5 6 6 6 11 1 17 -2 13 -5z m43 -34
c0 -5 -4 -10 -10 -10 -5 0 -10 5 -10 10 0 6 5 10 10 10 6 0 10 -4 10 -10z m60
-24 c0 -3 -4 -8 -10 -11 -5 -3 -10 -1 -10 4 0 6 5 11 10 11 6 0 10 -2 10 -4z
m3200 -5 c0 -6 -4 -13 -10 -16 -5 -3 -10 1 -10 9 0 9 5 16 10 16 6 0 10 -4 10
-9z m-598 -13 c-18 -9 -22 -17 -17 -35 5 -22 3 -23 -45 -23 -51 0 -90 -13 -90
-30 0 -5 11 -8 24 -7 38 3 35 -17 -4 -29 -22 -8 -34 -17 -32 -27 1 -9 -6 -18
-17 -22 -11 -3 -18 -12 -15 -19 3 -7 -3 -16 -13 -19 -10 -4 -26 -12 -36 -19
-15 -11 -20 -10 -33 6 -11 16 -17 17 -26 8 -15 -15 -45 -15 -54 0 -4 7 -3 8 4
4 6 -4 21 -1 34 5 13 7 30 15 38 20 8 4 14 12 13 18 -2 6 6 11 18 11 12 0 18
4 13 11 -3 6 0 16 7 21 11 8 11 11 1 15 -9 3 -10 9 -3 17 8 9 5 12 -11 12 -11
-1 -23 5 -26 13 -3 10 2 12 22 7 16 -4 26 -2 26 4 0 7 8 9 20 5 10 -3 33 1 49
9 17 9 43 16 58 16 17 0 33 8 41 20 8 14 22 20 45 19 31 0 31 -1 9 -11z
m-2912 -52 c0 -5 -7 -3 -15 4 -8 7 -15 20 -15 28 0 13 3 12 15 -4 8 -10 15
-23 15 -28z m3130 13 c0 -5 -9 -9 -20 -9 -22 0 -27 16 -7 23 15 5 27 -1 27
-14z m-2999 -12 c-10 -9 -11 -8 -5 6 3 10 9 15 12 12 3 -3 0 -11 -7 -18z
m3217 -10 c18 -10 39 -16 47 -13 15 5 41 -19 28 -27 -5 -3 -15 -2 -23 4 -8 5
-30 9 -47 9 -18 0 -33 5 -33 11 0 6 -7 8 -17 4 -14 -5 -15 -3 -6 6 6 6 9 19 6
28 -3 9 -1 12 4 6 4 -5 23 -18 41 -28z m-3098 -11 c0 -8 -4 -17 -8 -20 -4 -2
-8 4 -8 15 0 10 4 19 8 19 4 0 8 -6 8 -14z m2383 -10 c6 -16 -43 -29 -70 -19
-13 5 -9 9 18 19 45 16 46 16 52 0z m-2413 -43 c0 -10 -4 -14 -8 -8 -4 6 -11
13 -16 18 -5 4 -2 7 7 7 10 0 17 -8 17 -17z m-70 3 c0 -3 -4 -8 -10 -11 -5 -3
-10 -1 -10 4 0 6 5 11 10 11 6 0 10 -2 10 -4z m2187 -8 c-21 -7 -32 -7 -40 1
-8 8 0 11 29 10 39 -1 39 -1 11 -11z m233 8 c0 -3 -4 -8 -10 -11 -5 -3 -10 -1
-10 4 0 6 5 11 10 11 6 0 10 -2 10 -4z m686 -10 c25 -25 17 -39 -18 -32 -30 6
-31 5 -13 -8 11 -9 15 -16 8 -16 -6 0 -21 14 -33 30 -12 17 -25 28 -30 25 -5
-3 -11 -1 -15 5 -10 16 84 12 101 -4z m-123 -13 c29 -14 30 -17 12 -23 -11 -4
-21 -3 -23 1 -2 5 -10 9 -18 9 -8 0 -14 7 -14 15 0 19 4 19 43 -2z m307 -13
c10 0 22 -4 25 -10 9 -14 -29 -12 -43 2 -7 7 -12 17 -11 23 0 5 3 4 6 -2 2 -7
13 -13 23 -13z m300 -14 c0 -11 -33 -36 -41 -31 -19 12 -9 35 16 35 14 0 25
-2 25 -4z m-202 -38 c16 -16 15 -28 -3 -28 -8 0 -15 6 -15 14 0 8 -6 17 -12
19 -9 4 -8 6 3 6 8 1 20 -4 27 -11z m-981 -34 c-3 -3 -12 -4 -19 -1 -8 3 -5 6
6 6 11 1 17 -2 13 -5z m-37 -14 c0 -5 -7 -10 -16 -10 -8 0 -12 5 -9 10 3 6 10
10 16 10 5 0 9 -4 9 -10z m280 -18 c0 -4 -9 -13 -20 -20 -17 -10 -20 -10 -20
2 0 8 8 17 18 19 9 3 18 5 20 6 1 0 2 -2 2 -7z m-62 -35 c25 9 11 -16 -17 -30
-25 -12 -31 -12 -35 -1 -3 9 0 11 11 7 13 -5 14 -3 3 16 -10 20 -10 22 7 13
10 -5 24 -7 31 -5z m350 -41 c12 -4 22 -12 22 -17 0 -12 -47 -11 -55 1 -4 6
-14 10 -23 9 -32 -3 -52 1 -52 10 0 10 72 8 108 -3z m-328 -31 c0 -13 -29 -29
-37 -21 -3 2 0 14 7 25 11 22 30 20 30 -4z m-40 6 c0 -24 -50 -36 -57 -14 -4
10 5 14 50 22 4 0 7 -3 7 -8z m10 -59 c0 -5 -7 -9 -15 -9 -8 0 -15 4 -15 9 0
4 7 8 15 8 8 0 15 -4 15 -8z m-90 -62 c0 -5 -5 -10 -11 -10 -5 0 -7 5 -4 10 3
6 8 10 11 10 2 0 4 -4 4 -10z m-24 -77 c-11 -11 -17 4 -9 23 7 18 8 18 11 1 2
-10 1 -21 -2 -24z m689 -3 c15 -16 15 -20 3 -25 -15 -6 -68 10 -68 20 0 3 12
3 28 0 25 -5 25 -5 5 4 -28 12 -29 21 -5 21 11 0 27 -9 37 -20z m-150 -70 c4
-6 -9 -10 -32 -9 -34 1 -35 2 -13 9 35 11 38 11 45 0z m-415 -134 c0 -3 -4 -8
-10 -11 -5 -3 -10 -1 -10 4 0 6 5 11 10 11 6 0 10 -2 10 -4z m195 -16 c3 -6
-1 -7 -9 -4 -18 7 -21 14 -7 14 6 0 13 -4 16 -10z m-35 -10 c13 -8 13 -10 -2
-10 -9 0 -20 5 -23 10 -8 13 5 13 25 0z m107 4 c-3 -3 -12 -4 -19 -1 -8 3 -5
6 6 6 11 1 17 -2 13 -5z m39 -85 c9 -15 -23 -10 -35 5 -10 12 -8 13 9 9 11 -3
23 -9 26 -14z m1114 -79 c13 -8 13 -10 -2 -10 -9 0 -20 5 -23 10 -8 13 5 13
25 0z m30 -30 c0 -5 -2 -10 -4 -10 -3 0 -8 5 -11 10 -3 6 -1 10 4 10 6 0 11
-4 11 -10z m-1212 -42 c18 -18 15 -28 -8 -28 -11 0 -20 -7 -20 -16 0 -9 -7
-14 -17 -12 -10 1 -23 -1 -29 -5 -7 -4 -14 1 -17 13 -5 19 0 21 38 20 3 0 12
5 19 12 12 11 11 14 -3 20 -13 5 -12 7 5 7 11 1 25 -4 32 -11z m-1556 -290
c11 -11 17 -22 14 -26 -4 -3 -12 0 -18 6 -7 7 -25 12 -40 12 -17 0 -28 5 -28
13 0 33 37 30 72 -5z m188 2 c-27 -7 -43 -3 -35 9 2 5 17 6 32 3 l28 -6 -25
-6z m199 -6 c6 -5 -20 -34 -31 -34 -5 0 -6 5 -3 10 4 6 1 18 -7 27 -11 14 -10
15 12 8 14 -4 27 -9 29 -11z m1096 -24 c3 -5 -1 -10 -9 -10 -19 0 -21 -11 -4
-28 16 -16 10 -20 -40 -28 -35 -5 -42 -4 -42 10 0 9 15 22 33 30 20 9 26 15
14 15 -27 1 -10 21 18 21 13 0 27 -4 30 -10z m-1475 -30 c13 -20 12 -40 0 -40
-5 0 -9 5 -7 11 1 6 -7 13 -17 15 -10 1 -22 7 -25 12 -3 5 -13 11 -21 14 -8 4
2 5 23 4 21 -1 42 -8 47 -16z m909 -66 c1 -1 1 -7 0 -12 -2 -5 -17 0 -34 10
l-30 19 30 -7 c17 -4 32 -8 34 -10z m-1279 -13 c0 -5 -7 -11 -15 -15 -9 -3
-15 0 -15 9 0 8 7 15 15 15 8 0 15 -4 15 -9z m845 -1 c3 -5 2 -10 -4 -10 -5 0
-13 5 -16 10 -3 6 -2 10 4 10 5 0 13 -4 16 -10z m-2285 -20 c0 -5 -4 -10 -10
-10 -5 0 -10 5 -10 10 0 6 5 10 10 10 6 0 10 -4 10 -10z m1560 2 c0 -5 -13 -7
-30 -4 -16 2 -30 6 -30 8 0 2 14 4 30 4 17 0 30 -4 30 -8z m-320 -32 c8 -5 12
-11 9 -14 -7 -8 -49 5 -49 15 0 12 21 11 40 -1z m-1330 -10 c0 -5 -4 -10 -10
-10 -5 0 -10 5 -10 10 0 6 5 10 10 10 6 0 10 -4 10 -10z m1420 -10 c0 -5 -11
-10 -25 -10 -14 0 -25 5 -25 10 0 6 11 10 25 10 14 0 25 -4 25 -10z m1534 1
c13 -5 16 -10 8 -15 -11 -6 -52 9 -52 19 0 7 22 5 44 -4z m1066 -11 c0 -5 -5
-10 -11 -10 -5 0 -7 5 -4 10 3 6 8 10 11 10 2 0 4 -4 4 -10z m-4040 -33 c11
-5 9 -6 -4 -4 -11 1 -21 9 -23 17 -3 10 -2 11 4 4 4 -6 15 -14 23 -17z m3926
-9 c28 -24 39 -36 54 -57 8 -11 20 -21 26 -21 14 0 86 -81 79 -88 -7 -8 47
-42 57 -36 4 3 8 0 8 -5 0 -6 -9 -11 -20 -11 -11 0 -20 -4 -20 -10 0 -19 -42
-10 -84 19 -48 33 -84 80 -121 158 -26 55 -15 81 21 51z m148 -25 c4 -9 4 -18
1 -21 -7 -8 -35 19 -35 34 0 17 27 7 34 -13z m-4034 7 c0 -5 -2 -10 -4 -10 -3
0 -8 5 -11 10 -3 6 -1 10 4 10 6 0 11 -4 11 -10z m1235 -48 c-3 -3 -11 0 -18
7 -9 10 -8 11 6 5 10 -3 15 -9 12 -12z m-1225 -12 c13 -8 13 -10 -2 -10 -9 0
-20 5 -23 10 -8 13 5 13 25 0z m770 -630 c0 -5 -5 -10 -11 -10 -5 0 -7 5 -4
10 3 6 8 10 11 10 2 0 4 -4 4 -10z m5 -70 c3 -5 -1 -10 -10 -10 -9 0 -13 5
-10 10 3 6 8 10 10 10 2 0 7 -4 10 -10z m-655 -100 c0 -5 -2 -10 -4 -10 -3 0
-8 5 -11 10 -3 6 -1 10 4 10 6 0 11 -4 11 -10z m-26 -26 c9 -3 13 -10 10 -15
-3 -5 6 -20 21 -33 22 -20 23 -25 9 -30 -9 -4 -17 -5 -18 -4 -1 2 -7 13 -13
25 -7 13 -13 29 -13 37 0 8 -6 17 -12 19 -7 3 -10 6 -6 6 3 1 13 -2 22 -5z
m78 -46 c-7 -7 -12 -8 -12 -2 0 14 12 26 19 19 2 -3 -1 -11 -7 -17z m-45 -64
c-3 -3 -12 -4 -19 -1 -8 3 -5 6 6 6 11 1 17 -2 13 -5z m75 -16 c-7 -7 -12 -8
-12 -2 0 14 12 26 19 19 2 -3 -1 -11 -7 -17z m-62 -24 c0 -8 -55 1 -62 11 -14
19 4 24 33 10 16 -9 29 -18 29 -21z m133 -34 c3 -12 0 -20 -7 -20 -6 0 -12 9
-12 20 0 11 3 20 7 20 4 0 9 -9 12 -20z m-157 -47 c-11 -11 -19 6 -11 24 8 17
8 17 12 0 3 -10 2 -21 -1 -24z m91 1 c-3 -3 -12 -4 -19 -1 -8 3 -5 6 6 6 11 1
17 -2 13 -5z m-43 -66 c3 -15 0 -27 -9 -34 -8 -6 -15 -17 -15 -24 0 -10 -3
-10 -15 0 -8 7 -15 21 -15 32 0 17 3 18 15 8 15 -13 19 -8 16 23 -3 25 16 21
23 -5z m76 12 c0 -5 -4 -10 -10 -10 -5 0 -10 5 -10 10 0 6 5 10 10 10 6 0 10
-4 10 -10z m-165 -20 c3 -5 1 -10 -4 -10 -6 0 -11 5 -11 10 0 6 2 10 4 10 3 0
8 -4 11 -10z m-95 -10 c0 -5 -4 -10 -10 -10 -5 0 -10 5 -10 10 0 6 5 10 10 10
6 0 10 -4 10 -10z m54 -15 c3 -8 1 -15 -4 -15 -6 0 -10 7 -10 15 0 8 2 15 4
15 2 0 6 -7 10 -15z m30 -10 c-4 -8 -8 -15 -10 -15 -2 0 -4 7 -4 15 0 8 4 15
10 15 5 0 7 -7 4 -15z m-79 -15 c-4 -6 -1 -17 5 -25 14 -17 3 -20 -19 -6 -12
8 -12 12 -2 25 15 18 26 22 16 6z m-48 -22 c-3 -8 -6 -5 -6 6 -1 11 2 17 5 13
3 -3 4 -12 1 -19z m363 -104 c0 -8 -5 -14 -11 -14 -5 0 -7 5 -4 10 3 6 1 10
-4 10 -6 0 -11 4 -11 10 0 5 7 7 15 4 8 -4 15 -12 15 -20z m-70 -43 c0 -6 -4
-13 -10 -16 -5 -3 -10 1 -10 9 0 9 5 16 10 16 6 0 10 -4 10 -9z m100 -1 c0 -5
-4 -10 -10 -10 -5 0 -10 5 -10 10 0 6 5 10 10 10 6 0 10 -4 10 -10z m-297 -31
c21 -1 21 -2 2 -6 -11 -3 -23 -10 -26 -15 -3 -5 -6 6 -6 24 0 18 2 25 4 16 3
-10 14 -19 26 -19z m-38 -60 c-3 -4 -12 -6 -20 -3 -8 4 -13 10 -10 15 3 4 12
6 20 3 8 -4 13 -10 10 -15z m390 -39 c3 -5 -3 -10 -14 -10 -12 0 -21 5 -21 10
0 6 6 10 14 10 8 0 18 -4 21 -10z m45 -37 c0 -7 -4 -13 -9 -13 -5 0 -11 6 -14
13 -3 8 1 14 9 14 8 0 14 -6 14 -14z m-482 -128 c-3 -17 -4 -17 -18 0 -12 15
-12 17 -1 10 11 -6 13 -4 7 11 -5 14 -4 16 4 8 7 -7 10 -20 8 -29z m82 -15 c0
-5 8 -10 19 -10 24 0 47 -25 31 -35 -13 -8 -82 34 -74 46 7 12 24 12 24 -1z
m-40 -14 c0 -3 -4 -8 -10 -11 -5 -3 -10 -1 -10 4 0 6 5 11 10 11 6 0 10 -2 10
-4z m96 -120 c8 -8 14 -23 13 -33 0 -14 -2 -15 -6 -3 -3 8 -12 23 -21 33 -18
20 -7 23 14 3z m-196 -166 c0 -5 -4 -10 -10 -10 -5 0 -10 5 -10 10 0 6 5 10
10 10 6 0 10 -4 10 -10z m-192 -105 c-3 -3 -9 2 -12 12 -6 14 -5 15 5 6 7 -7
10 -15 7 -18z m-88 -155 c0 -5 -7 -10 -15 -10 -8 0 -15 5 -15 10 0 6 7 10 15
10 8 0 15 -4 15 -10z m1065 -448 c-3 -3 -11 0 -18 7 -9 10 -8 11 6 5 10 -3 15
-9 12 -12z m5 -22 c0 -5 -2 -10 -4 -10 -3 0 -8 5 -11 10 -3 6 -1 10 4 10 6 0
11 -4 11 -10z m-1170 -105 c0 -14 -4 -25 -10 -25 -5 0 -10 11 -10 25 0 14 5
25 10 25 6 0 10 -11 10 -25z m-35 -14 c3 -5 1 -12 -5 -16 -5 -3 -10 1 -10 9 0
18 6 21 15 7z m25 -71 c0 -13 -7 -20 -20 -20 -16 0 -20 7 -20 30 0 28 2 30 20
20 11 -6 20 -20 20 -30z m28 -51 c-30 -8 -46 1 -24 13 9 5 13 15 9 21 -3 7 4
3 16 -8 l23 -20 -24 -6z m28 -176 c-10 -10 -19 5 -10 18 6 11 8 11 12 0 2 -7
1 -15 -2 -18z m184 -517 c0 -3 -4 -8 -10 -11 -5 -3 -10 -1 -10 4 0 6 5 11 10
11 6 0 10 -2 10 -4z m29 -132 c3 -16 1 -17 -13 -5 -19 16 -21 34 -3 29 6 -3
14 -13 16 -24z m5135 -99 c-4 -8 -8 -15 -10 -15 -2 0 -4 7 -4 15 0 8 4 15 10
15 5 0 7 -7 4 -15z m66 0 c0 -8 -2 -15 -4 -15 -2 0 -6 7 -10 15 -3 8 -1 15 4
15 6 0 10 -7 10 -15z m50 -21 c0 -8 -4 -12 -10 -9 -5 3 -10 10 -10 16 0 5 5 9
10 9 6 0 10 -7 10 -16z m-50 -34 c0 -5 -2 -10 -4 -10 -3 0 -8 5 -11 10 -3 6
-1 10 4 10 6 0 11 -4 11 -10z m-154 -32 c4 -7 3 -8 -4 -4 -8 4 -16 -3 -22 -20
-9 -22 -8 -29 5 -36 8 -5 15 -14 15 -20 0 -6 -8 -4 -18 5 -14 13 -21 14 -30 5
-16 -16 -28 -2 -13 16 10 12 10 20 0 38 -10 20 -10 21 2 11 11 -9 19 -8 33 3
24 17 23 17 32 2z m260 -25 c-7 -7 -26 7 -26 19 0 6 6 6 15 -2 9 -7 13 -15 11
-17z m-199 1 c3 -8 0 -21 -7 -27 -10 -9 -11 -9 -6 1 4 7 2 19 -4 27 -9 11 -9
15 -1 15 6 0 14 -7 18 -16z m-5075 -29 c-6 -30 -12 -32 -28 -11 -20 28 -17 38
9 34 16 -2 21 -9 19 -23z m5043 5 c3 -5 2 -10 -4 -10 -5 0 -13 5 -16 10 -3 6
-2 10 4 10 5 0 13 -4 16 -10z m255 0 c0 -5 -4 -10 -10 -10 -5 0 -10 5 -10 10
0 6 5 10 10 10 6 0 10 -4 10 -10z m-105 -10 c-11 -5 -27 -9 -35 -9 -9 0 -8 4
5 9 11 5 27 9 35 9 9 0 8 -4 -5 -9z m149 -62 c-3 -5 -12 -2 -20 6 -20 21 -17
28 5 14 11 -7 17 -16 15 -20z m26 -28 c0 -5 -4 -10 -10 -10 -5 0 -10 5 -10 10
0 6 5 10 10 10 6 0 10 -4 10 -10z m-116 -19 c4 -5 -3 -7 -14 -4 -23 6 -26 13
-6 13 8 0 17 -4 20 -9z m66 -70 c0 -6 -4 -13 -10 -16 -5 -3 -10 1 -10 9 0 9 5
16 10 16 6 0 10 -4 10 -9z m-70 -31 c0 -17 9 -39 20 -50 12 -12 18 -26 14 -32
-9 -15 -43 31 -44 59 0 12 -7 29 -16 37 -14 15 -14 16 5 16 17 0 21 -6 21 -30z
m76 -68 c-11 -10 -15 4 -8 28 l7 25 3 -23 c2 -13 1 -26 -2 -30z m-136 -2 c0
-5 -4 -10 -10 -10 -5 0 -10 5 -10 10 0 6 5 10 10 10 6 0 10 -4 10 -10z m118
-53 c22 5 37 -11 28 -32 -4 -12 -10 -13 -29 -4 -18 8 -30 8 -45 0 -17 -9 -20
-7 -24 14 -6 31 -1 36 27 25 13 -5 32 -6 43 -3z m-5158 -28 c0 -5 -4 -9 -10
-9 -5 0 -10 7 -10 16 0 8 5 12 10 9 6 -3 10 -10 10 -16z m13 -73 c16 -13 16
-15 -3 -37 -14 -17 -18 -19 -14 -6 4 10 -1 26 -11 37 -14 15 -15 20 -4 20 8 0
22 -7 32 -14z m5472 -274 c-3 -3 -11 0 -18 7 -9 10 -8 11 6 5 10 -3 15 -9 12
-12z m-5615 -359 c0 -5 -5 -15 -10 -23 -8 -12 -10 -11 -10 8 0 12 5 22 10 22
6 0 10 -3 10 -7z m-415 -43 c3 -5 1 -10 -4 -10 -6 0 -11 5 -11 10 0 6 2 10 4
10 3 0 8 -4 11 -10z m15 -30 c0 -5 -5 -10 -11 -10 -5 0 -7 5 -4 10 3 6 8 10
11 10 2 0 4 -4 4 -10z m2280 -22 c0 -15 -15 -8 -28 12 -12 19 -11 20 8 8 11
-7 20 -16 20 -20z m-2305 -18 c3 -5 1 -10 -4 -10 -6 0 -11 5 -11 10 0 6 2 10
4 10 3 0 8 -4 11 -10z m331 -47 c-10 -10 -19 5 -10 18 6 11 8 11 12 0 2 -7 1
-15 -2 -18z m-71 7 c3 -5 1 -10 -4 -10 -6 0 -11 5 -11 10 0 6 2 10 4 10 3 0 8
-4 11 -10z m-295 -14 c0 -8 -4 -17 -8 -20 -4 -2 -8 4 -8 15 0 10 4 19 8 19 4
0 8 -6 8 -14z m70 -26 c0 -5 -4 -10 -10 -10 -5 0 -10 5 -10 10 0 6 5 10 10 10
6 0 10 -4 10 -10z m195 0 c8 -13 -5 -13 -25 0 -13 8 -13 10 2 10 9 0 20 -4 23
-10z m-115 -31 c0 -6 -4 -7 -10 -4 -5 3 -10 11 -10 16 0 6 5 7 10 4 6 -3 10
-11 10 -16z m227 15 c-3 -3 -12 -4 -19 -1 -8 3 -5 6 6 6 11 1 17 -2 13 -5z
m-43 -25 c-8 -14 -24 -10 -24 6 0 9 6 12 15 9 8 -4 12 -10 9 -15z m7812 7 c15
-16 19 -46 6 -46 -8 0 -32 43 -32 55 0 9 12 5 26 -9z m-8052 -5 c-8 -8 40 -51
57 -51 20 0 23 -39 4 -52 -15 -11 -45 -10 -45 2 0 6 10 10 21 10 18 0 19 3 9
14 -6 8 -18 12 -26 9 -8 -3 -14 1 -14 11 0 9 -8 16 -20 16 -22 0 -27 16 -7 23
7 3 2 9 -13 15 -24 10 -24 10 7 9 17 -1 29 -4 27 -6z m-124 -5 c0 -3 -4 -8
-10 -11 -5 -3 -10 -1 -10 4 0 6 5 11 10 11 6 0 10 -2 10 -4z m40 0 c0 -11 -19
-15 -25 -6 -3 5 1 10 9 10 9 0 16 -2 16 -4z m313 -22 c10 -4 17 -16 17 -30 0
-19 7 -26 30 -30 35 -8 40 -24 8 -24 -21 -1 -21 -2 -5 -11 9 -6 14 -15 11 -21
-12 -19 -15 -76 -4 -83 18 -11 11 -25 -12 -24 -18 0 -19 2 -6 7 14 6 13 9 -8
25 -13 10 -24 13 -24 7 0 -5 -4 -10 -10 -10 -5 0 -10 6 -10 14 0 8 -6 16 -14
19 -9 4 -12 14 -9 27 3 12 -2 28 -12 40 -10 11 -14 24 -9 31 5 9 2 10 -9 6
-10 -3 -17 -2 -17 3 0 6 7 10 17 10 15 0 15 1 -1 19 -16 18 -16 18 9 14 23 -5
30 -14 26 -35 0 -5 6 -8 14 -8 22 0 18 37 -5 43 -11 3 -20 10 -20 17 0 6 6 9
13 6 6 -3 20 -9 30 -12z m57 -4 c0 -13 -5 -18 -15 -14 -16 7 -19 17 -8 27 12
13 23 7 23 -13z m-370 -10 c0 -5 -5 -10 -11 -10 -5 0 -7 5 -4 10 3 6 8 10 11
10 2 0 4 -4 4 -10z m47 -26 c-3 -3 -12 -4 -19 -1 -8 3 -5 6 6 6 11 1 17 -2 13
-5z m323 -4 c0 -5 -5 -10 -11 -10 -5 0 -7 5 -4 10 3 6 8 10 11 10 2 0 4 -4 4
-10z m-303 -16 c-3 -3 -12 -4 -19 -1 -8 3 -5 6 6 6 11 1 17 -2 13 -5z m8048
-35 c4 -6 5 -12 2 -15 -7 -7 -37 7 -37 17 0 13 27 11 35 -2z m-8015 -19 c0 -5
-4 -10 -10 -10 -5 0 -10 5 -10 10 0 6 5 10 10 10 6 0 10 -4 10 -10z m73 -40
c-3 -3 -8 1 -10 8 -3 6 -12 12 -20 12 -13 0 -13 3 -2 16 11 14 14 13 25 -8 7
-13 10 -25 7 -28z m-93 9 c0 -12 -43 6 -48 20 -3 9 2 9 22 0 14 -7 26 -16 26
-20z m327 5 c11 -11 19 -12 26 -5 18 18 38 13 28 -6 -5 -10 -14 -30 -22 -45
-7 -16 -19 -28 -26 -28 -8 0 -11 5 -8 10 3 6 1 10 -5 10 -6 0 -8 10 -4 25 5
19 2 25 -10 25 -10 0 -13 6 -10 15 8 19 12 19 31 -1z m113 2 c0 -8 -9 -22 -21
-30 -13 -9 -18 -19 -14 -27 5 -8 4 -10 -3 -5 -18 11 -14 46 4 46 14 0 14 3 4
15 -10 13 -9 15 9 15 12 0 21 -6 21 -14z m-277 -2 c8 -8 -3 -34 -15 -34 -6 0
-6 6 1 14 9 11 9 15 -1 19 -7 3 -8 6 -2 6 6 1 13 -2 17 -5z m7967 -30 c0 -2
-7 -4 -15 -4 -8 0 -15 4 -15 10 0 5 7 7 15 4 8 -4 15 -8 15 -10z m-7945 -24
c3 -5 2 -10 -4 -10 -5 0 -13 5 -16 10 -3 6 -2 10 4 10 5 0 13 -4 16 -10z
m7985 -30 c6 -10 7 -26 4 -34 -7 -18 -24 -22 -24 -6 0 6 5 10 10 10 7 0 7 7 0
20 -8 14 -17 19 -30 15 -10 -3 -22 0 -26 6 -5 9 -2 10 9 6 10 -3 17 -2 17 3 0
15 29 0 40 -20z m-8033 -15 c13 3 23 1 23 -4 0 -20 -49 -18 -70 4 -27 29 -26
41 2 15 15 -14 30 -19 45 -15z m48 15 c3 -5 1 -10 -4 -10 -6 0 -11 5 -11 10 0
6 2 10 4 10 3 0 8 -4 11 -10z m7933 -30 c7 -11 9 -20 4 -20 -4 0 -13 9 -20 20
-7 11 -9 20 -4 20 4 0 13 -9 20 -20z m-78 -10 c0 -5 -7 -10 -15 -10 -8 0 -15
5 -15 10 0 6 7 10 15 10 8 0 15 -4 15 -10z m50 -11 c0 -5 -7 -9 -15 -9 -8 0
-15 -5 -15 -11 0 -5 -5 -7 -11 -4 -7 5 -4 13 8 25 18 17 33 17 33 -1z m-8026
-25 c5 -12 2 -15 -10 -10 -8 3 -21 6 -27 6 -7 0 -6 4 3 10 21 14 27 12 34 -6z
m8116 4 c0 -11 -22 -10 -39 1 -10 7 -7 9 12 8 15 -1 27 -5 27 -9z m-53 -62
c-3 -8 -1 -17 6 -20 7 -2 5 -5 -5 -5 -9 -1 -23 -4 -32 -7 -9 -3 -16 -1 -16 5
0 6 6 11 14 11 8 0 16 7 20 15 3 8 8 15 12 15 3 0 4 -6 1 -14z m66 -3 c-7 -2
-19 -2 -25 0 -7 3 -2 5 12 5 14 0 19 -2 13 -5z m-8303 -13 c0 -5 -2 -10 -4
-10 -3 0 -8 5 -11 10 -3 6 -1 10 4 10 6 0 11 -4 11 -10z m8131 -23 c-10 -9
-11 -8 -5 6 3 10 9 15 12 12 3 -3 0 -11 -7 -18z m148 -8 c-16 -10 -23 -4 -14
10 3 6 11 8 17 5 6 -4 5 -9 -3 -15z m-54 -9 c3 -5 1 -10 -4 -10 -6 0 -11 5
-11 10 0 6 2 10 4 10 3 0 8 -4 11 -10z m-127 -6 c12 -4 22 -13 22 -20 0 -12
-5 -12 -30 1 -43 22 -40 31 8 19z m-57 -34 c5 0 9 5 9 11 0 5 5 7 11 3 8 -5 6
-10 -5 -16 -20 -11 -36 -2 -35 20 1 15 2 15 6 0 2 -10 9 -18 14 -18z m-118 3
c-7 -2 -13 -12 -13 -21 0 -12 -3 -13 -11 -5 -14 14 -3 33 19 32 11 0 12 -3 5
-6z m184 -45 c-3 -8 -6 -5 -6 6 -1 11 2 17 5 13 3 -3 4 -12 1 -19z m-237 -8
c0 -5 -2 -10 -4 -10 -3 0 -8 5 -11 10 -3 6 -1 10 4 10 6 0 11 -4 11 -10z m176
-20 c0 -11 -4 -20 -8 -20 -10 0 -11 24 -1 33 9 9 9 10 9 -13z"/>
<path d="M4770 8730 c0 -5 5 -10 10 -10 6 0 10 5 10 10 0 6 -4 10 -10 10 -5 0
-10 -4 -10 -10z"/>
<path d="M5085 8750 c3 -5 8 -10 11 -10 2 0 4 5 4 10 0 6 -5 10 -11 10 -5 0
-7 -4 -4 -10z"/>
<path d="M5118 8733 c6 -2 18 -2 25 0 6 3 1 5 -13 5 -14 0 -19 -2 -12 -5z"/>
<path d="M1381 4104 c0 -11 3 -14 6 -6 3 7 2 16 -1 19 -3 4 -6 -2 -5 -13z"/>
<path d="M1560 1575 c0 -16 9 -19 34 -9 25 9 19 24 -9 24 -16 0 -25 -6 -25
-15z"/>
<path d="M1595 1541 c-3 -12 -11 -21 -16 -21 -6 0 -7 -4 -4 -10 9 -15 25 -12
25 4 0 8 7 16 17 18 15 3 15 4 0 16 -13 11 -16 10 -22 -7z"/>
<path d="M1692 1481 c2 -7 7 -12 11 -12 12 1 9 15 -3 20 -7 2 -11 -2 -8 -8z"/>
<path d="M2918 9593 c7 -3 16 -2 19 1 4 3 -2 6 -13 5 -11 0 -14 -3 -6 -6z"/>
<path d="M9130 9589 c0 -5 5 -7 10 -4 6 3 10 8 10 11 0 2 -4 4 -10 4 -5 0 -10
-5 -10 -11z"/>
<path d="M9258 9593 c6 -2 18 -2 25 0 6 3 1 5 -13 5 -14 0 -19 -2 -12 -5z"/>
<path d="M2988 9573 c6 -2 12 -11 12 -19 0 -8 5 -14 11 -14 6 0 8 7 5 16 -3 9
-6 18 -6 20 0 2 -8 4 -17 3 -11 0 -13 -3 -5 -6z"/>
<path d="M2945 9540 c-3 -5 -1 -10 4 -10 6 0 11 5 11 10 0 6 -2 10 -4 10 -3 0
-8 -4 -11 -10z"/>
<path d="M2875 9510 c-7 -12 2 -30 16 -30 5 0 9 9 9 20 0 21 -15 27 -25 10z"/>
<path d="M9330 9511 c0 -5 5 -13 10 -16 6 -3 10 -2 10 4 0 5 -4 13 -10 16 -5
3 -10 2 -10 -4z"/>
<path d="M3008 9483 c7 -3 16 -2 19 1 4 3 -2 6 -13 5 -11 0 -14 -3 -6 -6z"/>
<path d="M2918 9453 c7 -3 16 -2 19 1 4 3 -2 6 -13 5 -11 0 -14 -3 -6 -6z"/>
<path d="M3015 9440 c3 -5 11 -10 16 -10 6 0 7 5 4 10 -3 6 -11 10 -16 10 -6
0 -7 -4 -4 -10z"/>
<path d="M4050 9421 c0 -6 5 -13 10 -16 6 -3 10 1 10 9 0 9 -4 16 -10 16 -5 0
-10 -4 -10 -9z"/>
<path d="M4570 9400 c0 -5 7 -10 15 -10 8 0 15 5 15 10 0 6 -7 10 -15 10 -8 0
-15 -4 -15 -10z"/>
<path d="M2976 9391 c-5 -8 -4 -16 4 -21 8 -5 7 -9 -4 -13 -18 -7 -22 -27 -6
-27 10 0 50 36 50 45 0 3 -6 5 -14 5 -8 0 -16 5 -18 12 -3 9 -6 9 -12 -1z"/>
<path d="M3990 9390 c0 -5 5 -10 10 -10 6 0 10 5 10 10 0 6 -4 10 -10 10 -5 0
-10 -4 -10 -10z"/>
<path d="M4030 9381 c0 -5 7 -12 16 -15 24 -9 27 -7 10 9 -17 17 -26 19 -26 6z"/>
<path d="M3030 9353 c-8 -3 -23 -14 -34 -25 -11 -10 -28 -18 -38 -18 -21 0
-24 -16 -5 -23 12 -5 -2 -21 -28 -30 -5 -3 -7 -8 -3 -12 4 -4 14 0 23 9 9 9
21 16 26 16 6 0 8 4 4 9 -8 14 14 24 28 13 7 -5 21 -6 32 -1 19 8 19 8 -2 15
-28 8 -30 24 -3 24 11 0 20 7 20 15 0 8 -1 15 -2 14 -2 0 -10 -3 -18 -6z"/>
<path d="M9070 9350 c0 -5 5 -10 11 -10 5 0 7 5 4 10 -3 6 -8 10 -11 10 -2 0
-4 -4 -4 -10z"/>
<path d="M2765 9270 c3 -5 14 -10 23 -10 15 0 15 2 2 10 -20 13 -33 13 -25 0z"/>
<path d="M3030 9270 c-9 -6 -10 -10 -3 -10 6 0 15 5 18 10 8 12 4 12 -15 0z"/>
<path d="M3220 9260 c0 -5 5 -10 11 -10 5 0 7 5 4 10 -3 6 -8 10 -11 10 -2 0
-4 -4 -4 -10z"/>
<path d="M5795 9260 c3 -5 8 -10 11 -10 2 0 4 5 4 10 0 6 -5 10 -11 10 -5 0
-7 -4 -4 -10z"/>
<path d="M2746 9237 c3 -10 9 -15 12 -12 3 3 0 11 -7 18 -10 9 -11 8 -5 -6z"/>
<path d="M2785 9230 c3 -5 8 -10 11 -10 2 0 4 5 4 10 0 6 -5 10 -11 10 -5 0
-7 -4 -4 -10z"/>
<path d="M5860 9230 c0 -5 5 -10 10 -10 6 0 10 5 10 10 0 6 -4 10 -10 10 -5 0
-10 -4 -10 -10z"/>
<path d="M3041 9213 c-1 -12 4 -25 10 -28 14 -9 27 4 13 13 -6 4 -14 14 -17
22 -4 10 -6 8 -6 -7z"/>
<path d="M2810 9210 c0 -5 5 -10 11 -10 5 0 7 5 4 10 -3 6 -8 10 -11 10 -2 0
-4 -4 -4 -10z"/>
<path d="M2955 9210 c-8 -13 15 -24 27 -12 6 6 4 11 -6 15 -8 3 -18 2 -21 -3z"/>
<path d="M2850 9200 c0 -5 7 -10 15 -10 8 0 15 5 15 10 0 6 -7 10 -15 10 -8 0
-15 -4 -15 -10z"/>
<path d="M9345 9200 c-3 -5 -1 -10 4 -10 6 0 11 5 11 10 0 6 -2 10 -4 10 -3 0
-8 -4 -11 -10z"/>
<path d="M2730 9179 c0 -11 4 -18 10 -14 5 3 7 12 3 20 -7 21 -13 19 -13 -6z"/>
<path d="M2997 9193 c-13 -12 -7 -23 13 -23 11 0 20 7 20 15 0 15 -21 21 -33
8z"/>
<path d="M2897 9174 c3 -9 0 -20 -8 -25 -10 -6 -5 -8 16 -7 17 1 49 -2 73 -6
28 -5 42 -4 42 3 0 6 -8 12 -17 12 -10 1 -31 2 -47 3 -15 1 -34 10 -41 19 -15
21 -26 22 -18 1z"/>
<path d="M5270 9170 c0 -6 7 -10 15 -10 8 0 15 2 15 4 0 2 -7 6 -15 10 -8 3
-15 1 -15 -4z"/>
<path d="M3135 9150 c3 -5 8 -10 11 -10 2 0 4 5 4 10 0 6 -5 10 -11 10 -5 0
-7 -4 -4 -10z"/>
<path d="M5195 9130 c-3 -5 -2 -10 4 -10 5 0 16 -3 25 -6 11 -4 16 -1 16 10 0
18 -35 22 -45 6z"/>
<path d="M2945 9110 c-3 -5 -1 -10 4 -10 6 0 11 5 11 10 0 6 -2 10 -4 10 -3 0
-8 -4 -11 -10z"/>
<path d="M3222 9080 c13 -20 28 -27 28 -12 0 4 -9 13 -20 20 -19 12 -20 11 -8
-8z"/>
<path d="M2680 9059 c0 -5 5 -7 10 -4 6 3 10 8 10 11 0 2 -4 4 -10 4 -5 0 -10
-5 -10 -11z"/>
<path d="M2714 9059 c-3 -6 -1 -16 5 -22 8 -8 11 -5 11 11 0 24 -5 28 -16 11z"/>
<path d="M2915 9044 c0 -23 35 -58 35 -36 0 6 -6 12 -14 15 -9 4 -12 14 -9 26
3 12 1 21 -4 21 -5 0 -9 -12 -8 -26z"/>
<path d="M2960 9030 c0 -22 3 -40 8 -40 4 0 6 18 4 40 -2 22 -6 40 -8 40 -2 0
-4 -18 -4 -40z"/>
<path d="M3145 9040 c3 -5 8 -10 11 -10 2 0 4 5 4 10 0 6 -5 10 -11 10 -5 0
-7 -4 -4 -10z"/>
<path d="M2846 9031 c-4 -5 -3 -17 1 -27 5 -14 2 -16 -18 -11 -28 7 -58 -6
-40 -17 6 -4 9 -11 7 -15 -3 -4 -2 -21 3 -37 l8 -29 17 33 c10 19 12 32 6 32
-6 0 -8 5 -5 10 4 6 11 7 17 4 13 -8 28 14 28 44 0 22 -14 30 -24 13z"/>
<path d="M3031 9026 c-9 -10 -8 -15 2 -19 8 -3 13 3 13 14 0 23 0 23 -15 5z"/>
<path d="M5527 9023 c-3 -5 -25 -8 -50 -8 -32 0 -43 -3 -40 -12 6 -16 17 -16
65 -3 35 10 61 30 39 30 -5 0 -12 -3 -14 -7z"/>
<path d="M5560 9016 c0 -9 5 -16 10 -16 6 0 10 4 10 9 0 6 -4 13 -10 16 -5 3
-10 -1 -10 -9z"/>
<path d="M2880 9000 c0 -5 9 -14 21 -20 19 -11 20 -10 9 9 -11 22 -30 29 -30
11z"/>
<path d="M2950 8970 c0 -6 7 -10 15 -10 8 0 15 2 15 4 0 2 -7 6 -15 10 -8 3
-15 1 -15 -4z"/>
<path d="M2895 8950 c-3 -5 1 -10 9 -10 8 0 18 5 21 10 3 6 -1 10 -9 10 -8 0
-18 -4 -21 -10z"/>
<path d="M5420 8946 c0 -9 30 -14 35 -6 4 6 -3 10 -14 10 -12 0 -21 -2 -21 -4z"/>
<path d="M2732 8933 c-16 -3 -22 -9 -18 -20 3 -8 6 -19 6 -24 0 -6 5 -7 10 -4
8 5 7 11 -1 21 -9 11 -7 14 15 14 14 0 26 5 26 10 0 6 -3 9 -7 9 -5 -1 -18 -4
-31 -6z"/>
<path d="M2938 8923 c7 -3 16 -2 19 1 4 3 -2 6 -13 5 -11 0 -14 -3 -6 -6z"/>
<path d="M5593 8913 c9 -2 25 -2 35 0 9 3 1 5 -18 5 -19 0 -27 -2 -17 -5z"/>
<path d="M6220 8816 c0 -2 7 -7 16 -10 8 -3 12 -2 9 4 -6 10 -25 14 -25 6z"/>
<path d="M5520 8790 c0 -5 5 -10 11 -10 5 0 7 5 4 10 -3 6 -8 10 -11 10 -2 0
-4 -4 -4 -10z"/>
<path d="M5830 8766 c0 -11 3 -17 6 -13 3 3 17 -5 30 -18 13 -13 33 -30 44
-38 12 -8 22 -24 23 -36 1 -20 32 -39 44 -27 4 3 -1 6 -10 6 -17 0 -22 11 -10
23 3 4 13 1 21 -5 18 -16 59 -21 66 -9 3 5 -3 7 -14 4 -11 -3 -20 -1 -20 5 0
6 7 12 15 14 12 2 9 10 -14 35 -27 29 -28 34 -13 43 14 8 11 9 -13 10 -17 0
-36 5 -42 11 -6 6 -34 12 -62 12 -44 2 -51 -1 -51 -17z"/>
<path d="M6145 8760 c3 -5 11 -10 16 -10 6 0 7 5 4 10 -3 6 -11 10 -16 10 -6
0 -7 -4 -4 -10z"/>
<path d="M5490 8740 c0 -5 7 -10 16 -10 8 0 12 5 9 10 -3 6 -10 10 -16 10 -5
0 -9 -4 -9 -10z"/>
<path d="M6185 8740 c3 -5 13 -10 21 -10 8 0 14 5 14 10 0 6 -9 10 -21 10 -11
0 -17 -4 -14 -10z"/>
<path d="M6290 8740 c0 -5 5 -10 11 -10 5 0 7 5 4 10 -3 6 -8 10 -11 10 -2 0
-4 -4 -4 -10z"/>
<path d="M6070 8724 c0 -3 12 -21 26 -40 15 -19 22 -34 18 -35 -5 0 2 -5 15
-10 15 -6 28 -6 34 0 6 6 3 9 -8 8 -10 -1 -20 4 -22 10 -3 9 4 11 26 7 19 -4
37 -2 46 6 23 19 0 40 -46 40 -21 0 -49 4 -63 10 -14 5 -26 7 -26 4z"/>
<path d="M5394 8708 c-7 -10 20 -38 38 -38 4 0 8 11 8 25 0 18 -5 25 -19 25
-11 0 -23 -5 -27 -12z"/>
<path d="M6115 8620 c-3 -5 -1 -10 4 -10 6 0 11 5 11 10 0 6 -2 10 -4 10 -3 0
-8 -4 -11 -10z"/>
<path d="M9092 8150 c7 -11 20 -20 28 -20 12 1 11 3 -3 11 -9 6 -15 14 -12 20
4 5 -1 9 -9 9 -14 0 -14 -3 -4 -20z"/>
<path d="M9080 8095 c-7 -9 -8 -15 -2 -15 5 0 12 7 16 15 3 8 4 15 2 15 -2 0
-9 -7 -16 -15z"/>
<path d="M9185 8060 c3 -5 8 -10 11 -10 2 0 4 5 4 10 0 6 -5 10 -11 10 -5 0
-7 -4 -4 -10z"/>
<path d="M9045 8050 c-3 -6 1 -7 9 -4 18 7 21 14 7 14 -6 0 -13 -4 -16 -10z"/>
<path d="M9135 8050 c-3 -5 1 -10 9 -10 9 0 16 5 16 10 0 6 -4 10 -9 10 -6 0
-13 -4 -16 -10z"/>
<path d="M9235 8039 c-10 -15 3 -25 16 -12 7 7 7 13 1 17 -6 3 -14 1 -17 -5z"/>
<path d="M9168 8023 c7 -3 16 -2 19 1 4 3 -2 6 -13 5 -11 0 -14 -3 -6 -6z"/>
<path d="M8995 8010 c3 -5 10 -10 16 -10 5 0 9 5 9 10 0 6 -7 10 -16 10 -8 0
-12 -4 -9 -10z"/>
<path d="M9094 8008 c-3 -4 2 -8 10 -8 8 0 17 4 20 8 3 5 -2 9 -10 9 -8 0 -17
-4 -20 -9z"/>
<path d="M9052 8001 c2 -7 7 -12 11 -12 12 1 9 15 -3 20 -7 2 -11 -2 -8 -8z"/>
<path d="M9180 7989 c0 -5 5 -7 10 -4 6 3 10 8 10 11 0 2 -4 4 -10 4 -5 0 -10
-5 -10 -11z"/>
<path d="M9242 7980 c0 -14 2 -19 5 -12 2 6 2 18 0 25 -3 6 -5 1 -5 -13z"/>
<path d="M9020 7973 c0 -5 5 -15 10 -23 8 -12 10 -11 10 8 0 12 -4 22 -10 22
-5 0 -10 -3 -10 -7z"/>
<path d="M9210 7930 c0 -5 5 -10 10 -10 6 0 10 5 10 10 0 6 -4 10 -10 10 -5 0
-10 -4 -10 -10z"/>
<path d="M9271 7924 c0 -11 3 -14 6 -6 3 7 2 16 -1 19 -3 4 -6 -2 -5 -13z"/>
<path d="M9132 7906 c7 -7 19 -11 27 -8 11 4 10 7 -5 13 -29 12 -36 10 -22 -5z"/>
<path d="M9226 7888 c7 -11 54 -10 54 1 0 5 -13 9 -30 9 -16 -1 -27 -5 -24
-10z"/>
<path d="M9185 7860 c-10 -11 -13 -20 -8 -20 13 0 38 29 31 35 -3 3 -13 -4
-23 -15z"/>
<path d="M9090 7860 c0 -5 4 -10 9 -10 6 0 13 5 16 10 3 6 -1 10 -9 10 -9 0
-16 -4 -16 -10z"/>
<path d="M9300 7860 c0 -5 5 -10 10 -10 6 0 10 5 10 10 0 6 -4 10 -10 10 -5 0
-10 -4 -10 -10z"/>
<path d="M9250 7850 c0 -5 5 -10 10 -10 6 0 10 5 10 10 0 6 -4 10 -10 10 -5 0
-10 -4 -10 -10z"/>
<path d="M9111 7798 c-1 -21 3 -38 9 -38 5 0 7 -7 3 -16 -4 -11 -9 -12 -16 -5
-20 20 -30 11 -12 -9 17 -19 19 -19 37 -4 25 23 23 3 -2 -24 -17 -18 -18 -22
-5 -22 8 0 15 -9 15 -19 0 -14 -10 -22 -32 -26 -17 -4 -39 -14 -47 -23 -13
-13 -13 -14 6 -8 22 7 41 -8 24 -18 -5 -3 -6 -21 -1 -40 4 -19 5 -37 2 -40
-10 -11 -22 -6 -22 8 0 7 -7 19 -15 26 -12 10 -15 10 -15 -4 0 -9 4 -16 9 -16
4 0 7 -16 5 -35 -1 -19 2 -37 7 -41 12 -7 12 -44 -1 -44 -5 0 -10 -5 -10 -11
0 -8 5 -7 15 1 13 11 18 10 30 -6 12 -16 12 -19 -1 -22 -23 -6 -16 -29 11 -36
43 -11 27 -22 -32 -22 -31 0 -51 2 -45 4 25 8 10 21 -18 16 -23 -5 -30 -3 -30
9 0 19 -18 25 -55 16 l-30 -7 33 -1 c24 -1 32 -5 32 -20 0 -11 -5 -21 -10 -23
-6 -2 -4 -11 5 -23 13 -16 16 -16 11 -3 -3 12 -1 15 10 11 7 -3 14 -9 14 -14
0 -5 5 -9 11 -9 5 0 7 5 4 10 -3 6 1 10 9 10 9 0 16 -4 16 -10 0 -5 9 -10 20
-10 11 0 20 -4 20 -10 0 -5 -7 -10 -15 -10 -28 0 -15 -18 18 -24 24 -4 33 -11
33 -26 0 -22 -4 -24 -25 -11 -7 5 -10 14 -7 20 5 7 -2 11 -18 11 -16 0 -26 6
-26 15 0 10 -10 14 -35 13 -19 -1 -35 -5 -35 -10 0 -4 4 -8 9 -8 5 0 8 -14 6
-31 -3 -24 -1 -30 10 -25 22 8 28 -12 10 -31 -14 -14 -18 -14 -26 -2 -7 11 -9
11 -9 1 0 -8 -7 -11 -17 -8 -10 3 -29 -1 -43 -9 -24 -14 -24 -14 -3 -15 12 0
24 6 27 13 5 10 7 10 12 0 3 -7 14 -13 24 -13 10 0 22 -4 25 -10 11 -18 25
-10 25 15 0 14 4 25 9 25 15 0 22 -32 11 -45 -8 -9 -8 -14 0 -17 5 -1 12 -13
14 -24 3 -12 10 -31 18 -43 11 -18 11 -23 -1 -30 -7 -5 -23 -6 -35 -3 -20 5
-20 5 -3 -12 9 -10 17 -25 17 -35 0 -14 6 -17 31 -13 34 5 49 -8 49 -45 0 -12
6 -24 13 -26 6 -3 0 -6 -14 -6 -15 -1 -27 -7 -26 -13 0 -7 -1 -24 -2 -38 l-2
-25 -24 27 c-16 19 -26 24 -31 16 -4 -6 -2 -14 4 -16 7 -2 12 -11 12 -20 0 -8
7 -24 17 -34 15 -17 15 -18 -5 -18 -14 0 -22 6 -22 18 0 13 -2 14 -9 4 -5 -9
0 -22 16 -38 28 -28 33 -29 33 -8 0 12 6 15 24 10 14 -3 28 -2 31 4 3 5 16 10
28 10 16 0 18 3 9 9 -8 4 -12 19 -10 32 2 20 8 24 33 21 17 -1 40 -8 52 -14
27 -14 41 -4 24 16 -10 12 -10 20 0 38 l12 22 15 -22 c15 -22 42 -30 42 -12 0
6 12 8 28 4 15 -3 22 -2 17 3 -14 10 -17 53 -4 53 5 0 9 -7 9 -15 0 -8 9 -15
20 -15 11 0 20 5 20 11 0 5 4 7 10 4 5 -3 7 0 4 9 -3 8 -11 13 -18 10 -7 -3
-19 2 -26 11 -11 13 -11 23 -2 47 7 20 8 37 2 48 -7 13 -3 25 17 46 18 19 28
24 31 16 2 -7 -4 -19 -13 -26 -26 -18 -13 -66 15 -59 11 3 17 9 14 14 -3 5
-10 7 -15 4 -5 -4 -12 1 -16 10 -7 19 13 36 34 28 20 -8 16 11 -7 32 -11 10
-20 31 -20 47 0 30 -9 35 -28 16 -20 -20 -36 8 -33 55 0 9 8 17 17 17 10 0 14
6 11 14 -3 8 1 17 9 20 19 7 18 42 -1 50 -15 5 -16 50 -1 74 12 20 -3 32 -36
25 -22 -4 -29 -3 -24 5 4 7 18 12 31 12 34 0 36 30 3 63 -15 15 -28 32 -28 37
0 6 -7 10 -16 10 -12 0 -15 6 -10 25 6 24 -7 35 -19 15 -3 -5 -12 -7 -21 -3
-23 8 1 30 42 38 26 4 34 10 30 21 -4 11 0 14 16 12 11 -2 23 3 26 11 4 11 -4
13 -36 8 -32 -6 -41 -4 -46 10 -4 10 -4 14 0 11 3 -4 13 -1 20 7 16 16 19 29
4 20 -19 -12 -10 18 12 36 11 11 16 19 10 19 -14 0 -45 -30 -60 -56 -15 -26
-26 -11 -12 16 11 20 10 21 -8 11 -19 -10 -20 -8 -16 23 3 30 1 35 -26 45 -17
5 -30 15 -30 20 0 6 -5 11 -11 11 -7 0 -9 -10 -7 -25 6 -30 3 -31 -29 -5 -19
15 -21 20 -9 20 9 0 16 4 16 8 0 14 -23 32 -41 32 -10 0 -20 6 -22 13 -3 6 -6
-5 -6 -25z m29 -19 c0 -5 -4 -9 -10 -9 -5 0 -10 7 -10 16 0 8 5 12 10 9 6 -3
10 -10 10 -16z m105 -68 c-3 -6 -11 -8 -17 -5 -6 4 -5 9 3 15 16 10 23 4 14
-10z m35 -91 c0 -5 -9 -6 -20 -3 -11 3 -20 9 -20 13 0 5 9 6 20 3 11 -3 20 -9
20 -13z m-66 -21 c-6 -11 -24 -2 -24 11 0 5 7 7 15 4 8 -4 12 -10 9 -15z m35
-27 c-5 -2 -10 -13 -10 -25 -1 -17 -2 -18 -6 -4 -5 19 -18 22 -28 7 -10 -16
-25 -12 -19 5 4 8 15 15 25 15 10 0 19 7 19 15 0 13 2 14 14 3 8 -7 10 -14 5
-16z m87 17 c10 -17 -13 -36 -27 -22 -12 12 -4 33 11 33 5 0 12 -5 16 -11z
m-166 -25 c0 -14 -3 -14 -15 -4 -8 7 -15 14 -15 16 0 2 7 4 15 4 8 0 15 -7 15
-16z m-40 -45 c0 -6 -4 -7 -10 -4 -5 3 -10 11 -10 16 0 6 5 7 10 4 6 -3 10
-11 10 -16z m144 -5 c9 -3 16 -13 16 -20 0 -12 -4 -12 -20 -4 -11 6 -20 15
-20 20 0 12 3 12 24 4z m-128 -29 c-4 -11 1 -15 17 -15 21 -1 21 -1 3 -11 -15
-9 -16 -13 -5 -20 9 -5 -6 -7 -36 -3 -53 6 -63 10 -52 21 4 3 18 1 32 -5 21
-10 25 -9 25 3 0 8 -4 15 -10 15 -5 0 -10 5 -10 11 0 5 5 7 10 4 6 -3 10 -1
10 4 0 6 5 11 11 11 6 0 9 -7 5 -15z m211 -42 c-4 -3 0 -17 8 -30 9 -13 11
-23 6 -23 -5 0 -13 9 -16 20 -3 11 -13 20 -21 20 -8 0 -12 5 -9 10 3 6 13 10
22 10 9 0 13 -3 10 -7z m-137 -7 c0 -2 -7 -7 -16 -10 -8 -3 -12 -2 -9 4 6 10
25 14 25 6z m-105 -20 c17 -17 7 -30 -12 -15 -13 12 -18 29 -7 29 3 0 12 -6
19 -14z m175 -7 c0 -5 -4 -9 -10 -9 -5 0 -10 7 -10 16 0 8 5 12 10 9 6 -3 10
-10 10 -16z m-50 -9 c-19 -13 -30 -13 -30 0 0 6 10 10 23 10 18 0 19 -2 7 -10z
m99 -17 c0 -25 -1 -26 -9 -8 -12 27 -12 35 0 35 6 0 10 -12 9 -27z m-45 -28
c-4 -8 -7 -15 -9 -15 -2 0 -5 7 -9 15 -3 9 0 15 9 15 9 0 12 -6 9 -15z m96
-55 c0 -19 -5 -30 -14 -30 -8 0 -17 -6 -20 -12 -2 -7 -3 4 0 24 4 29 1 37 -13
41 -10 3 -3 5 15 6 29 1 32 -2 32 -29z m-159 -14 c12 6 12 5 0 -9 -19 -23 -31
-21 -31 6 0 16 3 18 9 8 5 -8 14 -10 22 -5z m99 -1 c0 -8 -4 -15 -9 -15 -5 0
-11 7 -15 15 -3 9 0 15 9 15 8 0 15 -7 15 -15z m-250 -11 c0 -2 -9 -4 -21 -4
-11 0 -18 4 -14 10 5 8 35 3 35 -6z m80 6 c0 -5 -4 -10 -10 -10 -5 0 -10 5
-10 10 0 6 5 10 10 10 6 0 10 -4 10 -10z m-50 -20 c0 -5 -2 -10 -4 -10 -3 0
-8 5 -11 10 -3 6 -1 10 4 10 6 0 11 -4 11 -10z m67 -26 c-3 -3 -12 -4 -19 -1
-8 3 -5 6 6 6 11 1 17 -2 13 -5z m223 2 c0 -2 -9 -6 -20 -9 -11 -3 -20 -1 -20
4 0 5 9 9 20 9 11 0 20 -2 20 -4z m-360 -46 c4 0 6 -10 2 -22 -3 -14 -1 -19 6
-14 6 3 13 2 17 -4 3 -5 -1 -10 -10 -10 -8 0 -19 8 -22 18 -4 9 -12 21 -20 25
-7 4 -13 15 -13 23 0 14 2 14 16 0 8 -9 19 -16 24 -16z m210 16 c0 -2 -7 -7
-16 -10 -8 -3 -12 -2 -9 4 6 10 25 14 25 6z m111 -19 c-10 -9 -11 -8 -5 6 3
10 9 15 12 12 3 -3 0 -11 -7 -18z m-56 -17 c-3 -5 -10 -10 -16 -10 -5 0 -9 5
-9 10 0 6 7 10 16 10 8 0 12 -4 9 -10z m48 -17 c-7 -2 -19 -2 -25 0 -7 3 -2 5
12 5 14 0 19 -2 13 -5z m-275 -73 c1 -35 -8 -38 -26 -10 -7 12 -8 20 -2 20 5
0 10 7 10 16 0 29 17 5 18 -26z m87 10 c-3 -5 -10 -10 -16 -10 -5 0 -9 5 -9
10 0 6 7 10 16 10 8 0 12 -4 9 -10z m175 -30 c0 -11 -4 -20 -9 -20 -5 0 -7 9
-4 20 3 11 7 20 9 20 2 0 4 -9 4 -20z m72 -2 c-7 -7 -12 -20 -12 -30 0 -10 -7
-21 -15 -24 -10 -4 -13 -15 -10 -33 3 -17 1 -15 -7 8 -9 27 -9 36 1 39 7 2 16
15 21 28 5 13 15 24 22 24 9 0 9 -3 0 -12z m-276 -64 c8 9 23 16 32 16 13 0
10 -6 -11 -25 -15 -14 -27 -31 -27 -37 0 -6 -13 6 -30 28 -36 47 -39 70 -5 31
23 -26 27 -27 41 -13z m210 6 c0 -11 -3 -20 -7 -20 -4 0 -9 9 -12 20 -3 12 0
20 7 20 6 0 12 -9 12 -20z m-62 -37 c-11 -12 -18 -13 -27 -4 -8 8 -7 11 6 11
9 0 17 5 17 11 0 5 5 7 10 4 6 -4 4 -12 -6 -22z m-190 1 c26 -10 19 -32 -9
-30 -24 1 -33 15 -18 29 8 8 8 8 27 1z m216 -14 c0 -5 -4 -10 -10 -10 -5 0
-10 -9 -10 -20 0 -11 -4 -20 -10 -20 -13 0 -13 3 2 35 11 25 28 34 28 15z m45
-10 c3 -5 1 -10 -6 -10 -7 0 -9 -9 -6 -22 8 -28 -18 -58 -43 -51 -12 3 -20 -2
-25 -16 -3 -12 -14 -21 -23 -21 -15 1 -14 3 2 15 19 14 18 15 -9 15 -27 0 -28
1 -13 17 14 13 20 14 32 3 13 -10 16 -10 16 4 0 9 8 16 18 16 14 0 15 -2 2
-10 -17 -11 -9 -13 15 -4 11 5 13 9 5 14 -15 9 -2 60 15 60 8 0 17 -4 20 -10z
m-195 -34 c0 -3 -4 -8 -10 -11 -5 -3 -10 -1 -10 4 0 6 5 11 10 11 6 0 10 -2
10 -4z m95 -6 c-3 -5 -10 -10 -16 -10 -5 0 -9 5 -9 10 0 6 7 10 16 10 8 0 12
-4 9 -10z m-55 -54 c0 -2 -9 -6 -20 -9 -11 -3 -18 -1 -14 4 5 9 34 13 34 5z
m160 -6 c0 -5 -10 -10 -22 -9 -22 0 -22 1 -3 9 11 5 21 9 23 9 1 1 2 -3 2 -9z
m-210 -60 c0 -5 -4 -10 -9 -10 -6 0 -13 5 -16 10 -3 6 1 10 9 10 9 0 16 -4 16
-10z m-9 -33 c-7 -7 -14 -8 -21 -1 -6 6 -2 10 12 11 16 2 18 -1 9 -10z m-6
-27 c3 -5 2 -10 -4 -10 -5 0 -13 5 -16 10 -3 6 -2 10 4 10 5 0 13 -4 16 -10z"/>
<path d="M9180 7820 c0 -5 5 -10 10 -10 6 0 10 5 10 10 0 6 -4 10 -10 10 -5 0
-10 -4 -10 -10z"/>
<path d="M9216 7811 c-17 -18 -16 -20 3 -26 12 -3 21 -11 21 -16 0 -5 11 -9
25 -9 18 0 25 5 25 19 0 11 -5 23 -11 27 -8 4 -9 0 -4 -15 3 -11 2 -21 -3 -21
-17 0 -33 27 -26 44 8 22 -9 20 -30 -3z"/>
<path d="M8907 7723 c6 -24 30 -49 39 -41 3 3 -6 19 -20 34 -22 26 -24 27 -19
7z"/>
<path d="M9322 7720 c-7 -11 -10 -20 -6 -20 7 0 34 27 34 34 0 13 -16 5 -28
-14z"/>
<path d="M9046 7722 c6 -4 14 -17 18 -29 4 -13 11 -23 16 -23 10 0 3 28 -13
48 -5 6 -15 12 -21 12 -8 0 -8 -2 0 -8z"/>
<path d="M9020 7675 c7 -8 17 -12 22 -9 6 4 5 10 -3 15 -22 14 -33 10 -19 -6z"/>
<path d="M8938 7643 c7 -3 16 -2 19 1 4 3 -2 6 -13 5 -11 0 -14 -3 -6 -6z"/>
<path d="M8990 7590 c6 -11 13 -20 15 -20 3 0 5 9 5 20 0 11 -7 20 -15 20 -13
0 -14 -4 -5 -20z"/>
<path d="M9351 7540 c0 -8 4 -22 9 -30 12 -18 12 -2 0 25 -6 13 -9 15 -9 5z"/>
<path d="M8950 7520 c-9 -6 -10 -10 -3 -10 6 0 15 5 18 10 8 12 4 12 -15 0z"/>
<path d="M9420 7470 c0 -5 5 -10 10 -10 6 0 10 5 10 10 0 6 -4 10 -10 10 -5 0
-10 -4 -10 -10z"/>
<path d="M8877 7453 c-4 -3 -7 -11 -7 -17 0 -6 5 -5 12 2 6 6 9 14 7 17 -3 3
-9 2 -12 -2z"/>
<path d="M9009 7405 c-1 -8 -2 -21 -3 -27 -1 -7 -5 -17 -11 -21 -6 -5 2 -6 17
-3 16 4 28 1 32 -7 3 -6 4 -3 3 8 -2 11 -9 19 -15 17 -8 -1 -10 6 -6 23 4 15
2 25 -5 25 -6 0 -12 -7 -12 -15z"/>
<path d="M8860 7396 c0 -15 18 -31 26 -23 7 7 -7 37 -17 37 -5 0 -9 -6 -9 -14z"/>
<path d="M8936 7386 c7 -19 38 -22 32 -3 -3 6 -12 13 -21 15 -12 2 -15 -1 -11
-12z"/>
<path d="M9430 7290 c0 -8 5 -22 10 -30 9 -13 10 -13 10 0 0 8 -5 22 -10 30
-9 13 -10 13 -10 0z"/>
<path d="M3865 7180 c-3 -5 -1 -10 4 -10 6 0 11 5 11 10 0 6 -2 10 -4 10 -3 0
-8 -4 -11 -10z"/>
<path d="M8945 7171 c-3 -5 -1 -12 5 -16 5 -3 10 1 10 9 0 18 -6 21 -15 7z"/>
<path d="M9426 7171 c-3 -5 1 -11 9 -15 8 -3 15 -1 15 4 0 13 -18 22 -24 11z"/>
<path d="M8880 7150 c0 -5 7 -10 15 -10 8 0 15 5 15 10 0 6 -7 10 -15 10 -8 0
-15 -4 -15 -10z"/>
<path d="M8916 7081 c-3 -5 8 -14 26 -20 32 -11 49 -7 32 8 -15 15 -52 22 -58
12z"/>
<path d="M8880 7061 c0 -5 7 -12 16 -15 24 -9 27 -7 10 9 -17 17 -26 19 -26 6z"/>
<path d="M8856 7045 c-3 -9 0 -15 9 -15 9 0 12 6 9 15 -4 8 -7 15 -9 15 -2 0
-5 -7 -9 -15z"/>
<path d="M9000 7051 c0 -5 7 -11 14 -14 10 -4 13 -1 9 9 -6 15 -23 19 -23 5z"/>
<path d="M3192 7029 c2 -7 10 -15 17 -17 8 -3 12 1 9 9 -2 7 -10 15 -17 17 -8
3 -12 -1 -9 -9z"/>
<path d="M8965 7030 c-3 -6 -18 -7 -32 -4 -21 6 -24 3 -21 -12 5 -27 33 -29
57 -5 12 12 21 23 21 26 0 9 -19 5 -25 -5z"/>
<path d="M8992 7003 c-12 -21 -10 -22 18 -20 29 2 44 17 16 17 -8 0 -16 6 -18
12 -3 8 -9 5 -16 -9z"/>
<path d="M8850 6990 c0 -5 5 -10 10 -10 6 0 10 5 10 10 0 6 -4 10 -10 10 -5 0
-10 -4 -10 -10z"/>
<path d="M3200 6960 c0 -5 5 -10 11 -10 5 0 7 5 4 10 -3 6 -8 10 -11 10 -2 0
-4 -4 -4 -10z"/>
<path d="M8991 6941 c12 -17 27 -31 31 -31 14 0 -11 39 -33 51 -20 10 -20 9 2
-20z"/>
<path d="M8860 6860 c0 -5 5 -10 11 -10 5 0 7 5 4 10 -3 6 -8 10 -11 10 -2 0
-4 -4 -4 -10z"/>
<path d="M8935 6850 c3 -5 8 -10 11 -10 2 0 4 5 4 10 0 6 -5 10 -11 10 -5 0
-7 -4 -4 -10z"/>
<path d="M9030 6842 c0 -12 -4 -22 -10 -22 -5 0 -10 -4 -10 -10 0 -5 4 -10 10
-10 11 0 25 48 16 57 -3 4 -6 -3 -6 -15z"/>
<path d="M9352 6782 c0 -9 -3 -25 -7 -34 -5 -12 -2 -20 9 -24 9 -3 13 -10 10
-16 -3 -5 -12 -4 -20 3 -8 6 -17 9 -21 5 -4 -3 3 -13 15 -22 12 -8 23 -23 23
-32 1 -9 5 -1 8 18 4 19 5 40 2 45 -3 6 -7 18 -8 29 -3 15 -1 17 11 7 10 -8
21 -9 31 -4 13 7 9 12 -19 26 -32 15 -35 15 -34 -1z"/>
<path d="M9431 6756 c-9 -11 -8 -15 5 -20 24 -9 31 -7 14 4 -13 9 -13 11 0 20
8 5 10 10 4 10 -6 0 -17 -6 -23 -14z"/>
<path d="M9190 6750 c0 -5 5 -10 11 -10 5 0 7 5 4 10 -3 6 -8 10 -11 10 -2 0
-4 -4 -4 -10z"/>
<path d="M5952 6728 c3 -7 13 -15 22 -16 12 -3 17 1 14 10 -3 7 -13 15 -22 16
-12 3 -17 -1 -14 -10z"/>
<path d="M9212 6713 c-6 -2 -9 -9 -6 -15 4 -6 10 -5 15 3 4 7 11 10 15 6 4 -4
-1 -16 -11 -27 -10 -11 -15 -23 -12 -27 4 -3 7 -1 7 5 0 7 7 12 15 12 9 0 18
7 21 15 5 13 11 11 32 -11 15 -14 28 -21 30 -16 2 6 -8 21 -21 34 -23 22 -59
32 -85 21z"/>
<path d="M9430 6674 c0 -8 5 -12 10 -9 6 3 10 10 10 16 0 5 -4 9 -10 9 -5 0
-10 -7 -10 -16z"/>
<path d="M9392 6660 c0 -14 2 -19 5 -12 2 6 2 18 0 25 -3 6 -5 1 -5 -13z"/>
<path d="M9269 6634 c18 -8 36 -13 39 -10 8 9 0 13 -38 19 l-35 6 34 -15z"/>
<path d="M9365 6620 c-3 -5 -13 -6 -21 -3 -14 5 -14 3 -3 -16 9 -13 15 -17 18
-9 2 7 8 19 14 26 5 6 7 12 4 12 -3 0 -8 -4 -12 -10z"/>
<path d="M9410 6570 c0 -5 5 -10 10 -10 6 0 10 5 10 10 0 6 -4 10 -10 10 -5 0
-10 -4 -10 -10z"/>
<path d="M9355 6560 c-3 -6 1 -7 9 -4 18 7 21 14 7 14 -6 0 -13 -4 -16 -10z"/>
<path d="M9383 6167 c3 -9 2 -17 -3 -17 -6 0 -10 -5 -10 -11 0 -15 30 -43 37
-35 4 3 1 12 -5 18 -7 7 -8 16 -3 22 6 7 3 17 -7 26 -14 13 -15 12 -9 -3z"/>
<path d="M9319 6148 c-5 -47 -4 -68 4 -68 4 0 5 -5 1 -11 -5 -8 -9 -8 -14 1
-6 10 -14 7 -31 -9 -18 -16 -20 -24 -11 -33 18 -18 15 -51 -3 -44 -11 4 -15
-2 -15 -25 0 -24 4 -30 15 -25 9 3 15 0 15 -9 0 -9 10 -15 23 -16 12 0 16 -3
9 -6 -8 -3 -25 0 -38 8 -27 14 -29 13 -38 -18 -7 -23 7 -32 19 -12 4 6 14 7
24 4 26 -11 128 -16 112 -6 -8 5 -11 16 -7 29 5 15 2 22 -11 25 -10 3 -1 5 20
6 38 1 44 21 6 21 -10 0 -19 5 -19 10 0 6 12 10 27 10 26 0 26 1 7 14 -15 12
-16 17 -7 27 9 9 16 9 26 1 8 -7 17 -9 20 -5 10 10 -25 32 -52 33 -18 0 -22 4
-19 18 6 22 -9 45 -36 55 -11 4 -16 13 -12 22 3 8 1 15 -4 15 -6 0 -11 -6 -11
-12z m45 -70 c-3 -5 -12 -4 -20 3 -19 16 -18 18 6 12 11 -3 17 -9 14 -15z
m-48 -39 c4 -8 9 -7 15 2 4 7 12 10 16 5 12 -12 -25 -35 -47 -29 -11 3 -20 12
-20 19 0 17 26 19 36 3z m74 -29 c0 -5 -7 -10 -16 -10 -8 0 -12 5 -9 10 3 6
10 10 16 10 5 0 9 -4 9 -10z m-26 -105 c-4 -8 -10 -12 -15 -9 -11 6 -2 24 11
24 5 0 7 -7 4 -15z"/>
<path d="M9490 6149 c0 -5 5 -7 10 -4 6 3 10 8 10 11 0 2 -4 4 -10 4 -5 0 -10
-5 -10 -11z"/>
<path d="M9410 6132 c0 -4 6 -14 13 -21 10 -10 8 -14 -6 -22 -23 -13 -13 -29
14 -22 12 4 18 11 15 20 -3 8 -2 11 3 8 5 -3 13 0 16 6 4 5 14 8 22 5 8 -3 11
-1 8 4 -3 6 -17 10 -30 10 -13 0 -27 5 -30 10 -7 12 -25 13 -25 2z"/>
<path d="M9190 6100 c0 -5 5 -10 11 -10 5 0 7 5 4 10 -3 6 -8 10 -11 10 -2 0
-4 -4 -4 -10z"/>
<path d="M9260 6100 c0 -5 6 -10 14 -10 8 0 18 5 21 10 3 6 -3 10 -14 10 -12
0 -21 -4 -21 -10z"/>
<path d="M9470 6049 c0 -5 5 -7 10 -4 6 3 10 8 10 11 0 2 -4 4 -10 4 -5 0 -10
-5 -10 -11z"/>
<path d="M9452 5988 c-7 -7 -12 -24 -12 -40 0 -22 4 -26 18 -21 26 9 52 35 46
44 -3 5 -9 7 -14 4 -5 -3 -13 1 -17 10 -7 12 -12 12 -21 3z m28 -28 c0 -5 -7
-10 -16 -10 -8 0 -12 5 -9 10 3 6 10 10 16 10 5 0 9 -4 9 -10z"/>
<path d="M9165 5909 c-10 -15 3 -25 16 -12 7 7 7 13 1 17 -6 3 -14 1 -17 -5z"/>
<path d="M9416 5888 c10 -13 20 -24 20 -26 1 -2 1 8 0 22 -1 18 -7 26 -20 26
-19 0 -19 0 0 -22z"/>
<path d="M5215 5880 c3 -5 10 -10 16 -10 5 0 9 5 9 10 0 6 -7 10 -16 10 -8 0
-12 -4 -9 -10z"/>
<path d="M4821 5853 c-18 -14 -38 -22 -46 -19 -8 3 -12 0 -10 -7 8 -22 -11
-40 -31 -29 -24 12 -42 6 -76 -27 -27 -26 -39 -52 -15 -34 16 14 67 22 67 12
0 -5 12 -4 26 1 14 6 41 10 60 10 21 0 33 4 29 10 -3 6 3 10 14 10 11 0 22 4
25 8 2 4 19 9 38 10 40 2 161 33 168 42 3 4 19 14 35 23 l30 15 -40 -2 c-22
-2 -52 -8 -66 -14 -14 -5 -36 -12 -50 -14 -13 -1 -27 -7 -31 -13 -13 -18 -22
6 -10 25 15 24 5 26 -20 3 -10 -9 -21 -13 -25 -9 -4 4 -1 11 7 16 10 6 5 9
-17 8 -17 -1 -45 -12 -62 -25z m59 -7 c0 -9 -9 -14 -21 -13 -19 1 -19 2 -3 14
22 16 24 16 24 -1z"/>
<path d="M9450 5835 c0 -14 4 -25 10 -25 5 0 9 11 8 25 -1 14 -6 25 -10 25 -4
0 -8 -11 -8 -25z"/>
<path d="M3255 5830 c10 -11 14 -24 9 -31 -4 -7 -3 -10 4 -5 5 3 12 2 14 -3 4
-11 112 -32 166 -31 12 0 22 -5 22 -10 0 -6 16 -10 35 -10 20 0 51 -6 70 -14
21 -9 37 -11 40 -5 4 5 17 6 31 3 31 -8 74 3 73 19 0 19 -58 60 -74 53 -9 -3
-19 3 -25 14 -13 24 -45 28 -36 5 3 -8 1 -15 -4 -15 -13 0 -64 23 -70 32 -3 4
-66 9 -139 12 -128 4 -132 3 -116 -14z"/>
<path d="M9353 5844 c-7 -3 -9 -13 -6 -22 6 -15 5 -15 -10 -3 -14 11 -18 11
-23 -3 -8 -21 -24 -20 -24 2 0 13 -2 14 -9 3 -12 -18 19 -56 31 -38 6 9 12 8
22 -5 18 -25 29 -22 20 4 -6 20 -5 21 8 10 11 -9 23 -9 39 -3 24 10 24 10 -4
10 -16 1 -26 5 -22 11 3 5 12 7 19 4 19 -7 31 15 17 29 -8 8 -14 8 -23 -1 -15
-15 -32 -16 -23 -2 7 11 6 11 -12 4z"/>
<path d="M3190 5820 c0 -5 5 -10 11 -10 5 0 7 5 4 10 -3 6 -8 10 -11 10 -2 0
-4 -4 -4 -10z"/>
<path d="M3230 5810 c0 -5 5 -10 11 -10 5 0 7 5 4 10 -3 6 -8 10 -11 10 -2 0
-4 -4 -4 -10z"/>
<path d="M2011 5743 c0 -11 3 -13 6 -5 2 6 9 10 14 6 5 -3 9 0 9 5 0 6 -7 11
-15 11 -8 0 -15 -8 -14 -17z"/>
<path d="M5063 5720 c-3 -11 -15 -22 -26 -26 -12 -4 -26 -12 -33 -18 -6 -6
-35 -29 -63 -51 -28 -22 -51 -43 -51 -46 0 -4 -8 -5 -17 -3 -20 4 -90 -41
-107 -68 -13 -21 0 -36 16 -20 7 7 19 12 28 12 8 0 20 10 25 23 6 12 19 22 32
23 12 1 37 16 55 34 26 27 83 60 101 60 2 0 12 -27 22 -60 10 -33 23 -64 29
-70 7 -5 59 -11 116 -13 136 -5 159 4 185 72 20 53 36 62 76 41 23 -13 25 -48
4 -56 -8 -4 -15 -15 -15 -26 0 -15 5 -18 16 -14 9 4 22 2 29 -4 15 -13 34 -10
53 8 7 6 23 12 35 12 12 1 33 7 47 15 24 13 24 14 5 20 -45 15 -62 24 -97 55
-60 51 -48 65 26 30 23 -10 57 -26 76 -34 19 -9 43 -21 52 -28 33 -24 31 3 -3
32 -89 78 -211 110 -443 115 -159 4 -168 3 -173 -15z m203 -79 c-10 -16 -33
-14 -39 3 -4 9 1 16 11 19 21 5 36 -8 28 -22z m-118 -33 c-2 -15 -11 -24 -25
-26 -19 -3 -23 1 -23 22 0 21 5 26 26 26 21 0 25 -4 22 -22z"/>
<path d="M4680 5719 c0 -5 5 -7 10 -4 6 3 10 8 10 11 0 2 -4 4 -10 4 -5 0 -10
-5 -10 -11z"/>
<path d="M4920 5716 c-71 -27 -88 -35 -95 -45 -9 -15 -1 -14 53 8 26 10 70 26
97 34 48 15 49 16 15 16 -19 0 -51 -6 -70 -13z"/>
<path d="M2061 5694 c0 -11 3 -14 6 -6 3 7 2 16 -1 19 -3 4 -6 -2 -5 -13z"/>
<path d="M2765 5701 c-3 -5 -1 -12 5 -16 12 -7 30 2 30 16 0 12 -27 12 -35 0z"/>
<path d="M3636 5703 c-3 -4 -39 -8 -79 -8 -151 -3 -481 -78 -546 -124 -16 -12
-33 -21 -37 -21 -9 0 -84 -81 -84 -91 0 -4 9 -11 20 -14 11 -3 20 -10 20 -14
0 -13 -24 -31 -42 -31 -10 0 -18 -7 -18 -15 0 -8 7 -15 15 -15 8 0 15 5 15 10
0 17 28 11 39 -7 10 -17 12 -17 26 1 16 21 61 30 71 15 4 -6 11 -6 19 1 7 6
26 13 42 14 19 3 27 9 25 19 -1 9 7 18 18 22 15 5 20 15 20 39 0 37 11 50 51
59 24 6 28 3 43 -36 9 -23 16 -50 16 -59 0 -27 28 -44 51 -30 11 7 43 15 72
17 28 3 66 10 82 15 17 5 49 11 72 15 37 6 42 10 47 41 6 27 12 34 29 34 38 0
52 -15 40 -42 -9 -21 -7 -24 46 -40 65 -20 87 -22 96 -7 7 10 -42 89 -55 89
-4 0 -11 8 -15 18 -5 14 -4 15 6 5 19 -18 70 -17 63 1 -3 8 3 23 14 34 20 20
20 20 0 25 -11 3 -17 10 -13 17 5 7 -2 9 -21 4 -23 -6 -26 -4 -21 11 6 14 3
16 -17 11 -14 -3 -28 -2 -31 4 -3 5 -13 10 -21 10 -8 0 -13 -4 -10 -9 3 -4 -6
-6 -19 -3 -28 5 -31 12 -13 30 7 7 8 12 2 12 -6 0 -14 -3 -18 -7z m-132 -134
c-3 -5 -10 -7 -15 -3 -5 3 -7 10 -3 15 3 5 10 7 15 3 5 -3 7 -10 3 -15z m-116
-26 c-3 -30 -25 -42 -34 -19 -9 22 2 46 21 46 12 0 15 -8 13 -27z"/>
<path d="M2011 5694 c-1 -6 2 -13 5 -17 8 -8 34 3 34 15 0 6 -6 6 -14 -1 -11
-9 -15 -9 -19 1 -3 7 -6 8 -6 2z"/>
<path d="M2030 5651 c0 -15 16 -22 34 -15 25 9 19 24 -9 24 -14 0 -25 -4 -25
-9z"/>
<path d="M1966 5532 c-3 -6 1 -13 10 -16 23 -9 28 -2 10 13 -8 7 -17 8 -20 3z"/>
<path d="M1936 5494 c-4 -11 0 -15 16 -12 12 2 23 9 26 16 6 18 -35 15 -42 -4z"/>
<path d="M2117 5503 c-4 -3 -7 -15 -7 -26 0 -16 3 -17 15 -7 8 7 15 19 15 26
0 15 -12 19 -23 7z"/>
<path d="M1950 5460 c0 -5 4 -10 9 -10 6 0 13 5 16 10 3 6 -1 10 -9 10 -9 0
-16 -4 -16 -10z"/>
<path d="M2126 5452 c-3 -6 -1 -14 5 -17 15 -10 25 3 12 16 -7 7 -13 7 -17 1z"/>
<path d="M1982 5443 c-12 -2 -20 -9 -17 -14 9 -14 32 -11 39 6 3 8 4 14 3 14
-1 -1 -12 -4 -25 -6z"/>
<path d="M3140 5432 c0 -27 80 -46 94 -23 7 10 -40 24 -54 16 -5 -3 -11 -1
-15 5 -7 12 -25 13 -25 2z"/>
<path d="M2311 5414 c0 -11 3 -14 6 -6 3 7 2 16 -1 19 -3 4 -6 -2 -5 -13z"/>
<path d="M2008 5403 c7 -3 16 -2 19 1 4 3 -2 6 -13 5 -11 0 -14 -3 -6 -6z"/>
<path d="M2228 5403 c-10 -3 -18 -8 -18 -13 0 -16 15 -18 33 -5 20 14 12 24
-15 18z"/>
<path d="M2310 5349 c0 -5 5 -7 10 -4 6 3 10 8 10 11 0 2 -4 4 -10 4 -5 0 -10
-5 -10 -11z"/>
<path d="M2162 5328 c-14 -14 -16 -38 -2 -38 5 0 7 7 4 15 -4 9 0 15 10 15 9
0 16 5 16 10 0 14 -13 13 -28 -2z"/>
<path d="M2040 5295 c0 -8 5 -15 10 -15 6 0 10 7 10 15 0 8 -4 15 -10 15 -5 0
-10 -7 -10 -15z"/>
<path d="M2195 5250 c3 -5 8 -10 11 -10 2 0 4 5 4 10 0 6 -5 10 -11 10 -5 0
-7 -4 -4 -10z"/>
<path d="M2020 5215 c0 -8 5 -15 10 -15 6 0 10 7 10 15 0 8 -4 15 -10 15 -5 0
-10 -7 -10 -15z"/>
<path d="M2125 5200 c-3 -5 -1 -10 4 -10 6 0 11 5 11 10 0 6 -2 10 -4 10 -3 0
-8 -4 -11 -10z"/>
<path d="M2116 5112 c-3 -6 -1 -14 5 -17 15 -10 25 3 12 16 -7 7 -13 7 -17 1z"/>
<path d="M1916 5083 c-6 -14 -5 -15 5 -6 7 7 10 15 7 18 -3 3 -9 -2 -12 -12z"/>
<path d="M2070 5086 c0 -9 5 -16 10 -16 6 0 10 4 10 9 0 6 -4 13 -10 16 -5 3
-10 -1 -10 -9z"/>
<path d="M2180 5070 c0 -5 5 -10 10 -10 6 0 10 5 10 10 0 6 -4 10 -10 10 -5 0
-10 -4 -10 -10z"/>
<path d="M1877 5054 c-8 -8 3 -34 14 -34 11 0 12 27 0 34 -4 3 -11 3 -14 0z"/>
<path d="M2105 5050 c-3 -5 -1 -10 4 -10 6 0 11 5 11 10 0 6 -2 10 -4 10 -3 0
-8 -4 -11 -10z"/>
<path d="M2020 5030 c0 -5 4 -10 9 -10 6 0 13 5 16 10 3 6 -1 10 -9 10 -9 0
-16 -4 -16 -10z"/>
<path d="M2070 5020 c0 -5 5 -10 11 -10 5 0 7 5 4 10 -3 6 -8 10 -11 10 -2 0
-4 -4 -4 -10z"/>
<path d="M1830 4873 c0 -18 2 -33 4 -33 9 0 13 39 5 51 -6 10 -9 4 -9 -18z"/>
<path d="M6887 4839 c7 -7 15 -10 18 -7 3 3 -2 9 -12 12 -14 6 -15 5 -6 -5z"/>
<path d="M6898 4813 c7 -3 16 -2 19 1 4 3 -2 6 -13 5 -11 0 -14 -3 -6 -6z"/>
<path d="M1610 4750 c0 -5 5 -10 10 -10 6 0 10 5 10 10 0 6 -4 10 -10 10 -5 0
-10 -4 -10 -10z"/>
<path d="M1585 4661 c-3 -5 -1 -12 5 -16 5 -3 10 1 10 9 0 18 -6 21 -15 7z"/>
<path d="M6858 4633 c7 -3 16 -2 19 1 4 3 -2 6 -13 5 -11 0 -14 -3 -6 -6z"/>
<path d="M1620 4610 c0 -5 5 -10 11 -10 5 0 7 5 4 10 -3 6 -8 10 -11 10 -2 0
-4 -4 -4 -10z"/>
<path d="M6750 4578 c0 -19 2 -20 10 -8 13 19 13 30 0 30 -5 0 -10 -10 -10
-22z"/>
<path d="M1630 4536 c0 -9 5 -16 10 -16 6 0 10 4 10 9 0 6 -4 13 -10 16 -5 3
-10 -1 -10 -9z"/>
<path d="M1630 4501 c0 -5 5 -13 10 -16 6 -3 10 -2 10 4 0 5 -4 13 -10 16 -5
3 -10 2 -10 -4z"/>
<path d="M1608 4473 c7 -3 16 -2 19 1 4 3 -2 6 -13 5 -11 0 -14 -3 -6 -6z"/>
<path d="M3783 4423 c-30 -6 -29 -14 8 -43 18 -14 39 -33 48 -42 8 -10 19 -18
24 -18 5 0 16 -9 26 -21 12 -16 23 -19 44 -14 32 9 36 39 7 57 -11 7 -20 17
-20 23 0 5 -16 22 -34 38 -33 26 -53 30 -103 20z"/>
<path d="M4550 4423 c-36 -4 -43 -6 -120 -42 -51 -24 -90 -54 -90 -69 0 -13
73 -3 78 10 2 4 12 8 22 8 10 0 20 4 22 9 2 6 44 15 93 21 117 14 135 18 135
30 0 20 -79 38 -140 33z"/>
<path d="M1581 4384 c0 -11 3 -14 6 -6 3 7 2 16 -1 19 -3 4 -6 -2 -5 -13z"/>
<path d="M2635 4350 c-3 -5 1 -10 10 -10 9 0 13 5 10 10 -3 6 -8 10 -10 10 -2
0 -7 -4 -10 -10z"/>
<path d="M6670 4350 c0 -5 7 -10 16 -10 8 0 12 5 9 10 -3 6 -10 10 -16 10 -5
0 -9 -4 -9 -10z"/>
<path d="M1590 4339 c0 -5 5 -7 10 -4 6 3 10 8 10 11 0 2 -4 4 -10 4 -5 0 -10
-5 -10 -11z"/>
<path d="M1480 4310 c0 -5 5 -10 10 -10 6 0 10 5 10 10 0 6 -4 10 -10 10 -5 0
-10 -4 -10 -10z"/>
<path d="M1635 4310 c4 -6 11 -8 16 -5 14 9 11 15 -7 15 -8 0 -12 -5 -9 -10z"/>
<path d="M1480 4270 c0 -5 5 -10 10 -10 6 0 10 5 10 10 0 6 -4 10 -10 10 -5 0
-10 -4 -10 -10z"/>
<path d="M4120 4269 c-23 -10 -24 -11 -7 -23 9 -7 17 -19 17 -25 0 -7 10 -11
22 -9 15 2 23 -2 23 -12 0 -18 35 -27 35 -8 0 10 2 10 8 1 9 -15 66 -2 97 21
27 20 15 28 -23 17 -25 -8 -32 -7 -32 5 0 7 -12 16 -27 19 -52 11 -58 13 -73
18 -8 3 -26 1 -40 -4z m47 -35 c-3 -3 -12 -4 -19 -1 -8 3 -5 6 6 6 11 1 17 -2
13 -5z"/>
<path d="M4068 4243 c-21 -5 -24 -23 -4 -23 8 0 16 -6 19 -12 3 -9 7 -7 12 5
9 22 -3 35 -27 30z"/>
<path d="M1480 4190 c0 -5 6 -10 14 -10 9 0 13 -7 11 -20 -4 -23 10 -27 18 -6
3 8 -2 21 -12 30 -20 18 -31 20 -31 6z"/>
<path d="M1550 4180 c0 -5 5 -10 11 -10 5 0 7 5 4 10 -3 6 -8 10 -11 10 -2 0
-4 -4 -4 -10z"/>
<path d="M1436 4133 c-8 -9 34 -53 51 -53 16 0 17 8 0 23 -28 27 -44 36 -51
30z"/>
<path d="M1510 4114 c0 -7 27 -34 34 -34 13 0 5 16 -14 28 -11 7 -20 10 -20 6z"/>
<path d="M1530 4056 c0 -18 27 -29 36 -14 4 5 0 14 -7 19 -20 13 -29 11 -29
-5z"/>
<path d="M1615 4030 c-3 -5 -1 -10 4 -10 6 0 11 5 11 10 0 6 -2 10 -4 10 -3 0
-8 -4 -11 -10z"/>
<path d="M1650 4030 c0 -5 5 -10 11 -10 5 0 7 5 4 10 -3 6 -8 10 -11 10 -2 0
-4 -4 -4 -10z"/>
<path d="M1610 3905 c0 -8 2 -15 4 -15 2 0 6 7 10 15 3 8 1 15 -4 15 -6 0 -10
-7 -10 -15z"/>
<path d="M3554 3856 c-5 -13 -14 -15 -35 -11 -45 10 -69 -9 -69 -55 0 -33 6
-44 45 -78 25 -22 45 -43 45 -46 0 -15 114 -121 127 -118 7 2 13 -1 14 -5 4
-58 10 -78 24 -92 13 -12 19 -13 22 -3 3 6 12 12 20 12 8 0 13 -6 10 -12 -15
-42 -17 -58 -8 -58 6 0 13 11 17 25 6 23 34 36 34 16 0 -5 16 -5 38 0 50 12
52 11 52 -7 0 -12 3 -14 13 -6 9 8 20 8 38 -2 27 -14 129 -20 129 -7 0 4 -11
13 -25 19 -14 6 -25 16 -25 22 0 9 15 11 85 14 11 1 21 5 22 10 1 5 7 12 13
16 18 11 2 30 -25 30 -15 0 -26 7 -30 20 -5 16 -10 18 -25 10 -46 -25 -136 1
-142 41 -3 20 -5 20 -35 -10 -41 -39 -58 -39 -83 1 -11 18 -33 36 -52 42 -26
9 -39 23 -61 70 l-29 59 20 20 20 20 36 -21 c20 -12 36 -17 36 -12 0 19 86 11
114 -11 21 -17 30 -18 41 -9 18 15 68 5 114 -22 25 -14 36 -16 41 -7 6 9 29 9
101 -1 52 -7 114 -11 139 -9 25 2 83 4 130 4 53 0 90 5 98 12 30 28 163 45
177 22 5 -7 15 -3 29 10 50 47 133 55 164 16 18 -22 21 -23 33 -9 7 8 25 22
41 30 25 13 29 13 48 -6 22 -22 26 -60 9 -92 -27 -50 27 -22 109 56 38 37 52
58 52 78 0 15 -3 28 -7 29 -91 8 -255 4 -288 -8 -21 -7 -47 -12 -56 -11 -9 2
-26 -6 -38 -16 -14 -13 -21 -15 -21 -6 0 10 -4 9 -18 -3 -9 -8 -41 -18 -71
-20 -29 -3 -56 -9 -60 -15 -3 -5 -19 -8 -34 -8 -16 1 -32 -4 -36 -11 -4 -8
-32 -15 -68 -17 -34 -2 -66 -7 -72 -10 -6 -4 -11 -1 -11 6 0 11 -21 13 -92 11
-51 -1 -104 -5 -117 -8 -17 -4 -28 0 -38 15 -16 23 -45 28 -37 5 4 -8 2 -15
-4 -15 -5 0 -13 7 -16 16 -4 11 -13 14 -31 10 -18 -5 -25 -2 -25 9 0 19 -64
37 -68 18 -2 -7 -7 -13 -12 -13 -5 0 -7 7 -4 15 5 12 -3 15 -39 15 -31 0 -47
5 -51 15 -3 9 -18 15 -35 15 -16 0 -32 6 -35 13 -3 8 -9 6 -20 -7 -14 -17 -16
-17 -16 -4 0 9 -8 17 -17 17 -115 2 -177 1 -181 -4 -3 -2 -11 0 -18 6 -11 9
-15 7 -20 -5z m383 -382 c-3 -3 -12 -4 -19 -1 -8 3 -5 6 6 6 11 1 17 -2 13 -5z"/>
<path d="M4726 3642 c-3 -3 -6 -17 -6 -32 0 -14 -5 -31 -12 -38 -15 -15 -144
-16 -153 -2 -10 17 -22 11 -29 -12 -3 -14 0 -27 9 -34 11 -8 12 -13 3 -22 -16
-16 -34 -15 -52 3 -12 12 -29 14 -81 9 -77 -8 -87 -24 -15 -24 28 0 50 -4 50
-10 0 -5 5 -10 11 -10 5 0 8 4 4 9 -9 16 15 24 31 10 9 -7 12 -20 8 -32 -5
-17 -3 -19 21 -13 15 4 41 10 59 13 17 3 36 10 43 15 7 5 17 7 23 3 6 -4 17
-1 25 5 8 7 31 13 52 14 35 2 92 24 198 78 65 33 70 42 40 62 -15 10 -28 16
-30 14 -1 -2 -14 -22 -29 -45 -36 -59 -69 -59 -124 1 -22 24 -43 41 -46 38z
m-100 -127 c9 -8 11 -15 6 -15 -5 0 -15 7 -22 15 -7 8 -9 15 -6 15 4 0 14 -7
22 -15z"/>
<path d="M1658 3593 c7 -3 16 -2 19 1 4 3 -2 6 -13 5 -11 0 -14 -3 -6 -6z"/>
<path d="M4275 3521 c-17 -7 -16 -9 13 -16 37 -8 55 1 32 15 -17 11 -18 11
-45 1z"/>
<path d="M1660 3500 c0 -11 2 -20 4 -20 2 0 6 9 9 20 3 11 1 20 -4 20 -5 0 -9
-9 -9 -20z"/>
<path d="M1690 3496 c-5 -15 -7 -33 -3 -39 4 -7 10 3 14 23 9 43 3 52 -11 16z"/>
<path d="M4173 3503 c9 -2 23 -2 30 0 6 3 -1 5 -18 5 -16 0 -22 -2 -12 -5z"/>
<path d="M1585 3470 c3 -5 11 -10 16 -10 6 0 7 5 4 10 -3 6 -11 10 -16 10 -6
0 -7 -4 -4 -10z"/>
<path d="M1630 3468 c0 -10 2 -18 4 -18 2 0 11 -3 20 -6 9 -3 16 -1 16 6 0 6
-4 9 -9 5 -6 -3 -14 3 -20 12 -10 17 -10 17 -11 1z"/>
<path d="M4380 3470 c0 -5 5 -10 10 -10 6 0 10 5 10 10 0 6 -4 10 -10 10 -5 0
-10 -4 -10 -10z"/>
<path d="M4420 3446 c0 -9 5 -16 10 -16 6 0 10 4 10 9 0 6 -4 13 -10 16 -5 3
-10 -1 -10 -9z"/>
<path d="M4460 3440 c-9 -6 -10 -10 -3 -10 6 0 15 5 18 10 8 12 4 12 -15 0z"/>
<path d="M1702 3410 c7 -11 16 -20 21 -20 4 0 3 9 -3 20 -6 11 -15 20 -20 20
-6 0 -5 -9 2 -20z"/>
<path d="M1666 3411 c-3 -5 1 -11 9 -14 9 -4 12 -1 8 9 -6 16 -10 17 -17 5z"/>
<path d="M4233 3403 c-13 -2 -23 -9 -23 -14 0 -14 24 -11 46 6 19 15 16 16
-23 8z"/>
<path d="M1690 3320 c0 -11 5 -20 10 -20 6 0 10 9 10 20 0 11 -4 20 -10 20 -5
0 -10 -9 -10 -20z"/>
<path d="M1700 3269 c0 -5 5 -7 10 -4 6 3 10 8 10 11 0 2 -4 4 -10 4 -5 0 -10
-5 -10 -11z"/>
<path d="M3020 3234 c0 -8 5 -12 10 -9 6 4 8 11 5 16 -9 14 -15 11 -15 -7z"/>
<path d="M6833 3203 c9 -2 25 -2 35 0 9 3 1 5 -18 5 -19 0 -27 -2 -17 -5z"/>
<path d="M6735 3190 c3 -5 8 -10 11 -10 2 0 4 5 4 10 0 6 -5 10 -11 10 -5 0
-7 -4 -4 -10z"/>
<path d="M1775 3170 c-3 -5 -2 -10 4 -10 5 0 13 5 16 10 3 6 2 10 -4 10 -5 0
-13 -4 -16 -10z"/>
<path d="M7050 3161 c0 -11 31 -24 39 -16 3 3 -1 10 -9 15 -19 12 -30 12 -30
1z"/>
<path d="M1695 3150 c-3 -5 1 -10 9 -10 9 0 16 5 16 10 0 6 -4 10 -9 10 -6 0
-13 -4 -16 -10z"/>
<path d="M7140 3130 c0 -5 5 -10 11 -10 5 0 7 5 4 10 -3 6 -8 10 -11 10 -2 0
-4 -4 -4 -10z"/>
<path d="M7040 3090 c0 -5 12 -10 28 -9 24 0 25 1 7 9 -27 12 -35 12 -35 0z"/>
<path d="M7048 3053 c7 -3 16 -2 19 1 4 3 -2 6 -13 5 -11 0 -14 -3 -6 -6z"/>
<path d="M1790 2960 c0 -5 5 -10 10 -10 6 0 10 5 10 10 0 6 -4 10 -10 10 -5 0
-10 -4 -10 -10z"/>
<path d="M7084 2804 c3 -9 6 -18 6 -20 0 -3 4 -3 10 1 11 7 2 35 -12 35 -6 0
-7 -7 -4 -16z"/>
<path d="M7155 2560 c27 -12 43 -12 25 0 -8 5 -22 9 -30 9 -10 0 -8 -3 5 -9z"/>
<path d="M7201 2524 c0 -11 3 -14 6 -6 3 7 2 16 -1 19 -3 4 -6 -2 -5 -13z"/>
<path d="M7106 2491 c-10 -15 22 -20 34 -5 10 11 9 14 -8 14 -12 0 -23 -4 -26
-9z"/>
<path d="M7160 2461 c0 -5 5 -13 10 -16 6 -3 10 -2 10 4 0 5 -4 13 -10 16 -5
3 -10 2 -10 -4z"/>
<path d="M1868 2439 c-10 -7 -10 -9 2 -9 8 0 25 -3 38 -6 12 -4 22 -2 22 4 0
13 -45 21 -62 11z"/>
<path d="M1890 2374 c0 -8 5 -12 10 -9 6 4 8 11 5 16 -9 14 -15 11 -15 -7z"/>
<path d="M1865 2350 c-3 -5 -1 -10 4 -10 6 0 11 5 11 10 0 6 -2 10 -4 10 -3 0
-8 -4 -11 -10z"/>
<path d="M5500 2320 c-9 -6 -10 -10 -3 -10 6 0 15 5 18 10 8 12 4 12 -15 0z"/>
<path d="M1881 2091 c-9 -6 -5 -10 13 -13 15 -3 29 0 33 6 3 6 3 8 -2 4 -4 -4
-13 -4 -19 2 -7 5 -18 5 -25 1z"/>
<path d="M9496 2075 c4 -8 10 -15 15 -15 5 0 9 7 9 15 0 8 -7 15 -15 15 -9 0
-12 -6 -9 -15z"/>
<path d="M9537 2056 c-4 -10 -1 -13 8 -9 8 3 12 9 9 14 -7 12 -11 11 -17 -5z"/>
<path d="M9315 2050 c3 -5 11 -10 16 -10 6 0 7 5 4 10 -3 6 -11 10 -16 10 -6
0 -7 -4 -4 -10z"/>
<path d="M9110 2035 c0 -9 7 -18 15 -22 24 -9 27 1 5 20 -17 14 -20 15 -20 2z"/>
<path d="M9350 2010 c0 -5 5 -10 10 -10 6 0 10 5 10 10 0 6 -4 10 -10 10 -5 0
-10 -4 -10 -10z"/>
<path d="M9392 2001 c-8 -5 -12 -16 -10 -25 2 -12 6 -10 15 9 6 14 10 25 10
25 -1 0 -8 -4 -15 -9z"/>
<path d="M1786 1975 c9 -14 21 -22 26 -19 5 3 0 15 -11 25 -28 26 -35 24 -15
-6z"/>
<path d="M9462 1980 c0 -14 2 -19 5 -12 2 6 2 18 0 25 -3 6 -5 1 -5 -13z"/>
<path d="M9511 1964 c0 -11 3 -14 6 -6 3 7 2 16 -1 19 -3 4 -6 -2 -5 -13z"/>
<path d="M9211 1926 c-10 -12 -8 -13 8 -9 12 3 21 9 21 14 0 14 -16 11 -29 -5z"/>
<path d="M9357 1926 c-4 -10 -5 -21 -2 -24 9 -9 17 6 13 25 -3 17 -4 17 -11
-1z"/>
<path d="M9460 1933 c0 -17 29 -43 48 -43 12 0 10 5 -8 17 -14 9 -28 22 -32
27 -5 8 -8 7 -8 -1z"/>
<path d="M9430 1916 c0 -8 4 -17 9 -20 5 -4 7 3 4 14 -6 23 -13 26 -13 6z"/>
<path d="M9254 1895 c7 -29 -2 -55 -19 -55 -8 0 -10 9 -7 25 2 15 0 25 -7 25
-6 0 -11 -6 -11 -12 0 -10 -2 -10 -8 -1 -5 8 -8 0 -9 -20 l-1 -33 48 6 c43 6
49 4 56 -14 6 -21 7 -20 11 2 5 27 12 28 29 5 9 -12 13 -14 14 -5 0 23 -26 42
-39 29 -9 -9 -14 -9 -20 2 -7 11 -10 11 -15 0 -7 -16 1 32 9 53 4 9 -2 14 -16
15 -17 2 -20 -2 -15 -22z"/>
<path d="M9315 1910 c3 -5 8 -10 11 -10 2 0 4 5 4 10 0 6 -5 10 -11 10 -5 0
-7 -4 -4 -10z"/>
<path d="M9390 1900 c0 -5 7 -10 15 -10 8 0 15 5 15 10 0 6 -7 10 -15 10 -8 0
-15 -4 -15 -10z"/>
<path d="M1786 1818 c-3 -13 -1 -27 4 -32 7 -7 10 1 10 22 0 37 -5 41 -14 10z"/>
<path d="M9199 1800 c0 -10 -2 -11 -6 -2 -6 15 -33 16 -33 1 0 -6 9 -13 20
-16 11 -3 20 -12 20 -19 0 -16 16 -19 25 -4 3 6 13 10 22 10 14 0 14 -2 -1
-19 -14 -15 -14 -20 -3 -30 11 -8 17 -8 24 1 17 22 24 56 13 63 -6 3 -8 11 -5
16 6 9 0 11 -47 13 -19 1 -28 -3 -29 -14z"/>
<path d="M9582 1800 c-7 -11 -8 -20 -3 -20 9 0 24 30 18 36 -1 2 -8 -6 -15
-16z"/>
<path d="M9390 1781 c0 -17 23 -61 32 -61 13 0 9 16 -7 30 -8 7 -13 16 -10 20
3 5 1 11 -5 15 -5 3 -10 2 -10 -4z"/>
<path d="M1740 1740 c0 -5 5 -10 10 -10 6 0 10 5 10 10 0 6 -4 10 -10 10 -5 0
-10 -4 -10 -10z"/>
<path d="M9195 1710 c-3 -5 -1 -10 4 -10 6 0 11 5 11 10 0 6 -2 10 -4 10 -3 0
-8 -4 -11 -10z"/>
<path d="M9478 1713 c7 -3 16 -2 19 1 4 3 -2 6 -13 5 -11 0 -14 -3 -6 -6z"/>
<path d="M9250 1685 c0 -8 4 -15 10 -15 5 0 7 7 4 15 -4 8 -8 15 -10 15 -2 0
-4 -7 -4 -15z"/>
<path d="M9497 1669 c7 -7 15 -10 18 -7 3 3 -2 9 -12 12 -14 6 -15 5 -6 -5z"/>
<path d="M9230 1655 c0 -8 -4 -15 -10 -15 -5 0 -10 4 -10 10 0 5 -7 7 -15 3
-13 -4 -12 -8 6 -21 18 -12 23 -13 30 -1 9 15 12 39 4 39 -3 0 -5 -7 -5 -15z"/>
<path d="M9261 1647 c-16 -16 -14 -37 4 -37 8 0 15 -9 15 -20 0 -21 23 -18 48
6 18 18 15 24 -10 21 -13 -1 -22 3 -21 8 2 18 -23 35 -36 22z"/>
<path d="M9087 1631 c-3 -14 0 -21 9 -21 16 0 18 9 5 28 -6 10 -10 9 -14 -7z"/>
<path d="M9510 1620 c0 -5 -9 -10 -20 -10 -11 0 -20 -5 -20 -11 0 -5 5 -7 11
-4 5 4 19 -1 30 -11 10 -9 19 -12 19 -6 0 6 -4 13 -10 17 -5 3 -7 12 -3 20 3
8 2 15 -1 15 -3 0 -6 -4 -6 -10z"/>
<path d="M9545 1620 c-3 -5 -1 -10 4 -10 6 0 11 5 11 10 0 6 -2 10 -4 10 -3 0
-8 -4 -11 -10z"/>
<path d="M9148 1608 c-20 -7 -28 -17 -28 -34 0 -13 3 -23 8 -22 14 3 60 -21
65 -34 4 -9 6 -8 6 3 1 9 -15 24 -34 35 -41 22 -44 31 -10 40 14 3 25 10 25
15 0 5 -1 9 -2 8 -2 0 -15 -5 -30 -11z"/>
<path d="M9568 1603 c-33 -5 -38 -32 -7 -40 11 -3 18 -11 16 -17 -3 -7 1 -19
8 -29 10 -14 12 -11 9 21 -1 28 -6 36 -18 34 -9 -2 -16 2 -16 8 0 5 9 10 20
10 11 0 20 5 20 10 0 6 -1 9 -2 9 -2 -1 -15 -4 -30 -6z"/>
<path d="M9185 1580 c3 -5 13 -10 21 -10 8 0 14 5 14 10 0 6 -9 10 -21 10 -11
0 -17 -4 -14 -10z"/>
<path d="M9228 1556 c-16 -22 -16 -24 7 -34 16 -8 23 -17 19 -27 -4 -10 0 -15
11 -15 11 0 15 5 12 14 -4 11 -1 13 10 9 11 -4 14 -2 11 8 -3 8 -11 13 -18 11
-14 -3 -40 16 -40 29 0 14 28 11 33 -3 2 -7 8 -10 12 -5 8 6 -21 36 -35 36 -3
0 -13 -10 -22 -23z"/>
<path d="M1835 1550 c-3 -5 1 -10 10 -10 9 0 13 5 10 10 -3 6 -8 10 -10 10 -2
0 -7 -4 -10 -10z"/>
<path d="M9127 1509 c4 -13 8 -18 11 -10 2 7 -1 18 -6 23 -8 8 -9 4 -5 -13z"/>
<path d="M9318 1493 c7 -3 16 -2 19 1 4 3 -2 6 -13 5 -11 0 -14 -3 -6 -6z"/>
<path d="M9215 1470 c3 -5 8 -10 11 -10 2 0 4 5 4 10 0 6 -5 10 -11 10 -5 0
-7 -4 -4 -10z"/>
<path d="M9280 1470 c0 -5 -7 -7 -15 -4 -10 4 -15 0 -15 -11 0 -12 5 -15 16
-11 9 3 20 6 25 6 5 0 9 7 9 15 0 8 -4 15 -10 15 -5 0 -10 -4 -10 -10z"/>
<path d="M9032 1442 c-8 -6 -2 -9 17 -9 17 0 28 4 25 9 -7 10 -25 10 -42 0z"/>
<path d="M9225 1441 c6 -10 2 -11 -15 -6 -15 5 -25 2 -31 -6 -12 -19 -11 -29
1 -29 6 0 10 7 10 16 0 14 3 14 15 4 22 -18 46 4 26 23 -11 10 -12 9 -6 -2z"/>
<path d="M9345 1420 c3 -5 8 -10 11 -10 2 0 4 5 4 10 0 6 -5 10 -11 10 -5 0
-7 -4 -4 -10z"/>
<path d="M9130 1410 c0 -5 5 -10 10 -10 6 0 10 5 10 10 0 6 -4 10 -10 10 -5 0
-10 -4 -10 -10z"/>
<path d="M9583 1401 c-10 -15 -9 -22 2 -31 13 -11 15 -7 15 19 0 36 -1 37 -17
12z"/>
<path d="M9088 1393 c6 -2 18 -2 25 0 6 3 1 5 -13 5 -14 0 -19 -2 -12 -5z"/>
<path d="M9026 1369 c-17 -17 -16 -17 18 -15 46 4 50 8 22 22 -17 8 -26 6 -40
-7z"/>
<path d="M9190 1379 c0 -5 5 -7 10 -4 6 3 10 8 10 11 0 2 -4 4 -10 4 -5 0 -10
-5 -10 -11z"/>
<path d="M9141 1371 c-12 -8 -9 -11 12 -16 15 -4 27 -11 27 -17 0 -5 5 -6 10
-3 16 10 2 25 -23 25 -18 0 -19 2 -7 10 8 5 11 10 5 10 -5 0 -17 -4 -24 -9z"/>
<path d="M9120 1317 c0 -20 0 -20 -15 -1 -14 18 -14 18 -15 -8 0 -23 4 -27 28
-26 15 1 41 -2 57 -7 17 -4 27 -4 22 1 -5 5 -14 9 -20 9 -7 0 -13 10 -15 21
-4 30 -42 40 -42 11z"/>
<path d="M9205 1301 c-3 -5 -1 -12 5 -16 5 -3 10 1 10 9 0 18 -6 21 -15 7z"/>
<path d="M9018 1250 c-15 -15 -25 -30 -21 -33 11 -12 23 -8 23 8 0 7 7 18 16
23 9 5 15 14 13 19 -2 5 -16 -3 -31 -17z"/>
</g>
</svg>
